G04 PROTEUS GERBER X2 FILE*
%TF.GenerationSoftware,Labcenter,Proteus,8.13-SP0-Build31525*%
%TF.CreationDate,2025-10-06T08:39:33+00:00*%
%TF.FileFunction,AssemblyDrawing,Top*%
%TF.FilePolarity,Positive*%
%TF.Part,Single*%
%TF.SameCoordinates,{e836b8dc-1bae-4307-972e-94e507faed55}*%
%FSLAX45Y45*%
%MOMM*%
G01*
%TA.AperFunction,Material*%
%ADD70C,0.203200*%
%ADD26C,0.480000*%
%ADD27C,0.216330*%
%ADD28C,0.711200*%
%ADD29C,0.110230*%
%ADD72C,0.111760*%
%ADD73C,0.812800*%
%ADD30C,0.190500*%
%ADD31C,0.508000*%
%ADD32C,0.827120*%
%ADD33C,0.194730*%
%ADD34C,0.082550*%
%ADD35C,0.609600*%
%ADD36C,0.160020*%
%TA.AperFunction,Profile*%
%ADD19C,0.203200*%
%TD.AperFunction*%
D70*
X-1060000Y-9060000D02*
X-290000Y-9060000D01*
X-290000Y-8490000D01*
X-1060000Y-8490000D01*
X-1060000Y-9060000D01*
D26*
X-1000000Y-8550000D02*
X-1000000Y-8550000D01*
D27*
X-827702Y-8839901D02*
X-827702Y-8710100D01*
X-706014Y-8710100D01*
X-681676Y-8731733D01*
X-681676Y-8753367D01*
X-706014Y-8775000D01*
X-681676Y-8796634D01*
X-681676Y-8818268D01*
X-706014Y-8839901D01*
X-827702Y-8839901D01*
X-827702Y-8775000D02*
X-706014Y-8775000D01*
X-608663Y-8731733D02*
X-584325Y-8710100D01*
X-511312Y-8710100D01*
X-486974Y-8731733D01*
X-486974Y-8753367D01*
X-511312Y-8775000D01*
X-584325Y-8775000D01*
X-608663Y-8796634D01*
X-608663Y-8839901D01*
X-486974Y-8839901D01*
D70*
X-2560000Y-9060000D02*
X-1790000Y-9060000D01*
X-1790000Y-8490000D01*
X-2560000Y-8490000D01*
X-2560000Y-9060000D01*
D26*
X-2500000Y-8550000D02*
X-2500000Y-8550000D01*
D27*
X-2327702Y-8839901D02*
X-2327702Y-8710100D01*
X-2206014Y-8710100D01*
X-2181676Y-8731733D01*
X-2181676Y-8753367D01*
X-2206014Y-8775000D01*
X-2181676Y-8796634D01*
X-2181676Y-8818268D01*
X-2206014Y-8839901D01*
X-2327702Y-8839901D01*
X-2327702Y-8775000D02*
X-2206014Y-8775000D01*
X-2108663Y-8731733D02*
X-2084325Y-8710100D01*
X-2011312Y-8710100D01*
X-1986974Y-8731733D01*
X-1986974Y-8753367D01*
X-2011312Y-8775000D01*
X-1986974Y-8796634D01*
X-1986974Y-8818268D01*
X-2011312Y-8839901D01*
X-2084325Y-8839901D01*
X-2108663Y-8818268D01*
X-2059987Y-8775000D02*
X-2011312Y-8775000D01*
D70*
X+440000Y-9060000D02*
X+1210000Y-9060000D01*
X+1210000Y-8490000D01*
X+440000Y-8490000D01*
X+440000Y-9060000D01*
D26*
X+500000Y-8550000D02*
X+500000Y-8550000D01*
D27*
X+672298Y-8839901D02*
X+672298Y-8710100D01*
X+793986Y-8710100D01*
X+818324Y-8731733D01*
X+818324Y-8753367D01*
X+793986Y-8775000D01*
X+818324Y-8796634D01*
X+818324Y-8818268D01*
X+793986Y-8839901D01*
X+672298Y-8839901D01*
X+672298Y-8775000D02*
X+793986Y-8775000D01*
X+915675Y-8753367D02*
X+964351Y-8710100D01*
X+964351Y-8839901D01*
D70*
X-4060000Y-9060000D02*
X-3290000Y-9060000D01*
X-3290000Y-8490000D01*
X-4060000Y-8490000D01*
X-4060000Y-9060000D01*
D26*
X-4000000Y-8550000D02*
X-4000000Y-8550000D01*
D27*
X-3827702Y-8839901D02*
X-3827702Y-8710100D01*
X-3706014Y-8710100D01*
X-3681676Y-8731733D01*
X-3681676Y-8753367D01*
X-3706014Y-8775000D01*
X-3681676Y-8796634D01*
X-3681676Y-8818268D01*
X-3706014Y-8839901D01*
X-3827702Y-8839901D01*
X-3827702Y-8775000D02*
X-3706014Y-8775000D01*
X-3486974Y-8796634D02*
X-3633000Y-8796634D01*
X-3535649Y-8710100D01*
X-3535649Y-8839901D01*
D70*
X-5560000Y-9060000D02*
X-4790000Y-9060000D01*
X-4790000Y-8490000D01*
X-5560000Y-8490000D01*
X-5560000Y-9060000D01*
D26*
X-5500000Y-8550000D02*
X-5500000Y-8550000D01*
D27*
X-5327702Y-8839901D02*
X-5327702Y-8710100D01*
X-5206014Y-8710100D01*
X-5181676Y-8731733D01*
X-5181676Y-8753367D01*
X-5206014Y-8775000D01*
X-5181676Y-8796634D01*
X-5181676Y-8818268D01*
X-5206014Y-8839901D01*
X-5327702Y-8839901D01*
X-5327702Y-8775000D02*
X-5206014Y-8775000D01*
X-4986974Y-8710100D02*
X-5108663Y-8710100D01*
X-5108663Y-8753367D01*
X-5011312Y-8753367D01*
X-4986974Y-8775000D01*
X-4986974Y-8818268D01*
X-5011312Y-8839901D01*
X-5084325Y-8839901D01*
X-5108663Y-8818268D01*
D70*
X-6810000Y-9060000D02*
X-6040000Y-9060000D01*
X-6040000Y-8490000D01*
X-6810000Y-8490000D01*
X-6810000Y-9060000D01*
D26*
X-6750000Y-8550000D02*
X-6750000Y-8550000D01*
D27*
X-6577702Y-8839901D02*
X-6577702Y-8710100D01*
X-6456014Y-8710100D01*
X-6431676Y-8731733D01*
X-6431676Y-8753367D01*
X-6456014Y-8775000D01*
X-6431676Y-8796634D01*
X-6431676Y-8818268D01*
X-6456014Y-8839901D01*
X-6577702Y-8839901D01*
X-6577702Y-8775000D02*
X-6456014Y-8775000D01*
X-6236974Y-8731733D02*
X-6261312Y-8710100D01*
X-6334325Y-8710100D01*
X-6358663Y-8731733D01*
X-6358663Y-8818268D01*
X-6334325Y-8839901D01*
X-6261312Y-8839901D01*
X-6236974Y-8818268D01*
X-6236974Y-8796634D01*
X-6261312Y-8775000D01*
X-6358663Y-8775000D01*
D70*
X-8060000Y-9060000D02*
X-7290000Y-9060000D01*
X-7290000Y-8490000D01*
X-8060000Y-8490000D01*
X-8060000Y-9060000D01*
D26*
X-8000000Y-8550000D02*
X-8000000Y-8550000D01*
D27*
X-7827702Y-8839901D02*
X-7827702Y-8710100D01*
X-7706014Y-8710100D01*
X-7681676Y-8731733D01*
X-7681676Y-8753367D01*
X-7706014Y-8775000D01*
X-7681676Y-8796634D01*
X-7681676Y-8818268D01*
X-7706014Y-8839901D01*
X-7827702Y-8839901D01*
X-7827702Y-8775000D02*
X-7706014Y-8775000D01*
X-7608663Y-8710100D02*
X-7486974Y-8710100D01*
X-7486974Y-8731733D01*
X-7608663Y-8839901D01*
D70*
X-9310000Y-9060000D02*
X-8540000Y-9060000D01*
X-8540000Y-8490000D01*
X-9310000Y-8490000D01*
X-9310000Y-9060000D01*
D26*
X-9250000Y-8550000D02*
X-9250000Y-8550000D01*
D27*
X-9077702Y-8839901D02*
X-9077702Y-8710100D01*
X-8956014Y-8710100D01*
X-8931676Y-8731733D01*
X-8931676Y-8753367D01*
X-8956014Y-8775000D01*
X-8931676Y-8796634D01*
X-8931676Y-8818268D01*
X-8956014Y-8839901D01*
X-9077702Y-8839901D01*
X-9077702Y-8775000D02*
X-8956014Y-8775000D01*
X-8834325Y-8775000D02*
X-8858663Y-8753367D01*
X-8858663Y-8731733D01*
X-8834325Y-8710100D01*
X-8761312Y-8710100D01*
X-8736974Y-8731733D01*
X-8736974Y-8753367D01*
X-8761312Y-8775000D01*
X-8834325Y-8775000D01*
X-8858663Y-8796634D01*
X-8858663Y-8818268D01*
X-8834325Y-8839901D01*
X-8761312Y-8839901D01*
X-8736974Y-8818268D01*
X-8736974Y-8796634D01*
X-8761312Y-8775000D01*
D70*
X+161100Y-7838900D02*
X+1354900Y-7838900D01*
X+1354900Y-7661100D01*
X+161100Y-7661100D01*
X+161100Y-7838900D01*
D28*
X+250000Y-7750000D02*
X+250000Y-7750000D01*
D29*
X+721018Y-7783071D02*
X+721018Y-7716930D01*
X+783025Y-7716930D01*
X+795427Y-7727953D01*
X+795427Y-7738977D01*
X+783025Y-7750000D01*
X+721018Y-7750000D01*
X+783025Y-7750000D02*
X+795427Y-7761024D01*
X+795427Y-7783071D01*
X+845033Y-7738977D02*
X+869836Y-7716930D01*
X+869836Y-7783071D01*
D70*
X-1338900Y-7838900D02*
X-145100Y-7838900D01*
X-145100Y-7661100D01*
X-1338900Y-7661100D01*
X-1338900Y-7838900D01*
D28*
X-1250000Y-7750000D02*
X-1250000Y-7750000D01*
D29*
X-778982Y-7783071D02*
X-778982Y-7716930D01*
X-716975Y-7716930D01*
X-704573Y-7727953D01*
X-704573Y-7738977D01*
X-716975Y-7750000D01*
X-778982Y-7750000D01*
X-716975Y-7750000D02*
X-704573Y-7761024D01*
X-704573Y-7783071D01*
X-667369Y-7727953D02*
X-654967Y-7716930D01*
X-617763Y-7716930D01*
X-605361Y-7727953D01*
X-605361Y-7738977D01*
X-617763Y-7750000D01*
X-654967Y-7750000D01*
X-667369Y-7761024D01*
X-667369Y-7783071D01*
X-605361Y-7783071D01*
D70*
X-2838900Y-7838900D02*
X-1645100Y-7838900D01*
X-1645100Y-7661100D01*
X-2838900Y-7661100D01*
X-2838900Y-7838900D01*
D28*
X-2750000Y-7750000D02*
X-2750000Y-7750000D01*
D29*
X-2278982Y-7783071D02*
X-2278982Y-7716930D01*
X-2216975Y-7716930D01*
X-2204573Y-7727953D01*
X-2204573Y-7738977D01*
X-2216975Y-7750000D01*
X-2278982Y-7750000D01*
X-2216975Y-7750000D02*
X-2204573Y-7761024D01*
X-2204573Y-7783071D01*
X-2167369Y-7727953D02*
X-2154967Y-7716930D01*
X-2117763Y-7716930D01*
X-2105361Y-7727953D01*
X-2105361Y-7738977D01*
X-2117763Y-7750000D01*
X-2105361Y-7761024D01*
X-2105361Y-7772048D01*
X-2117763Y-7783071D01*
X-2154967Y-7783071D01*
X-2167369Y-7772048D01*
X-2142566Y-7750000D02*
X-2117763Y-7750000D01*
D70*
X-4338900Y-7838900D02*
X-3145100Y-7838900D01*
X-3145100Y-7661100D01*
X-4338900Y-7661100D01*
X-4338900Y-7838900D01*
D28*
X-4250000Y-7750000D02*
X-4250000Y-7750000D01*
D29*
X-3778982Y-7783071D02*
X-3778982Y-7716930D01*
X-3716975Y-7716930D01*
X-3704573Y-7727953D01*
X-3704573Y-7738977D01*
X-3716975Y-7750000D01*
X-3778982Y-7750000D01*
X-3716975Y-7750000D02*
X-3704573Y-7761024D01*
X-3704573Y-7783071D01*
X-3605361Y-7761024D02*
X-3679770Y-7761024D01*
X-3630164Y-7716930D01*
X-3630164Y-7783071D01*
D70*
X-5838900Y-7838900D02*
X-4645100Y-7838900D01*
X-4645100Y-7661100D01*
X-5838900Y-7661100D01*
X-5838900Y-7838900D01*
D28*
X-5750000Y-7750000D02*
X-5750000Y-7750000D01*
D29*
X-5278982Y-7783071D02*
X-5278982Y-7716930D01*
X-5216975Y-7716930D01*
X-5204573Y-7727953D01*
X-5204573Y-7738977D01*
X-5216975Y-7750000D01*
X-5278982Y-7750000D01*
X-5216975Y-7750000D02*
X-5204573Y-7761024D01*
X-5204573Y-7783071D01*
X-5105361Y-7716930D02*
X-5167369Y-7716930D01*
X-5167369Y-7738977D01*
X-5117763Y-7738977D01*
X-5105361Y-7750000D01*
X-5105361Y-7772048D01*
X-5117763Y-7783071D01*
X-5154967Y-7783071D01*
X-5167369Y-7772048D01*
D70*
X-7088900Y-7838900D02*
X-5895100Y-7838900D01*
X-5895100Y-7661100D01*
X-7088900Y-7661100D01*
X-7088900Y-7838900D01*
D28*
X-7000000Y-7750000D02*
X-7000000Y-7750000D01*
D29*
X-6528982Y-7783071D02*
X-6528982Y-7716930D01*
X-6466975Y-7716930D01*
X-6454573Y-7727953D01*
X-6454573Y-7738977D01*
X-6466975Y-7750000D01*
X-6528982Y-7750000D01*
X-6466975Y-7750000D02*
X-6454573Y-7761024D01*
X-6454573Y-7783071D01*
X-6355361Y-7727953D02*
X-6367763Y-7716930D01*
X-6404967Y-7716930D01*
X-6417369Y-7727953D01*
X-6417369Y-7772048D01*
X-6404967Y-7783071D01*
X-6367763Y-7783071D01*
X-6355361Y-7772048D01*
X-6355361Y-7761024D01*
X-6367763Y-7750000D01*
X-6417369Y-7750000D01*
D70*
X-8338900Y-7838900D02*
X-7145100Y-7838900D01*
X-7145100Y-7661100D01*
X-8338900Y-7661100D01*
X-8338900Y-7838900D01*
D28*
X-8250000Y-7750000D02*
X-8250000Y-7750000D01*
D29*
X-7778982Y-7783071D02*
X-7778982Y-7716930D01*
X-7716975Y-7716930D01*
X-7704573Y-7727953D01*
X-7704573Y-7738977D01*
X-7716975Y-7750000D01*
X-7778982Y-7750000D01*
X-7716975Y-7750000D02*
X-7704573Y-7761024D01*
X-7704573Y-7783071D01*
X-7667369Y-7716930D02*
X-7605361Y-7716930D01*
X-7605361Y-7727953D01*
X-7667369Y-7783071D01*
D70*
X-9588900Y-7838900D02*
X-8395100Y-7838900D01*
X-8395100Y-7661100D01*
X-9588900Y-7661100D01*
X-9588900Y-7838900D01*
D28*
X-9500000Y-7750000D02*
X-9500000Y-7750000D01*
D29*
X-9028982Y-7783071D02*
X-9028982Y-7716930D01*
X-8966975Y-7716930D01*
X-8954573Y-7727953D01*
X-8954573Y-7738977D01*
X-8966975Y-7750000D01*
X-9028982Y-7750000D01*
X-8966975Y-7750000D02*
X-8954573Y-7761024D01*
X-8954573Y-7783071D01*
X-8904967Y-7750000D02*
X-8917369Y-7738977D01*
X-8917369Y-7727953D01*
X-8904967Y-7716930D01*
X-8867763Y-7716930D01*
X-8855361Y-7727953D01*
X-8855361Y-7738977D01*
X-8867763Y-7750000D01*
X-8904967Y-7750000D01*
X-8917369Y-7761024D01*
X-8917369Y-7772048D01*
X-8904967Y-7783071D01*
X-8867763Y-7783071D01*
X-8855361Y-7772048D01*
X-8855361Y-7761024D01*
X-8867763Y-7750000D01*
D70*
X-9137160Y-6887160D02*
X-8608840Y-6887160D01*
X-8608840Y-6612840D01*
X-9137160Y-6612840D01*
X-9137160Y-6887160D01*
D28*
X-9000000Y-6750000D02*
X-9000000Y-6750000D01*
D72*
X-8811786Y-6772352D02*
X-8824359Y-6783528D01*
X-8862078Y-6783528D01*
X-8887224Y-6761176D01*
X-8887224Y-6738824D01*
X-8862078Y-6716472D01*
X-8824359Y-6716472D01*
X-8811786Y-6727648D01*
X-8774067Y-6727648D02*
X-8761494Y-6716472D01*
X-8723775Y-6716472D01*
X-8711202Y-6727648D01*
X-8711202Y-6738824D01*
X-8723775Y-6750000D01*
X-8711202Y-6761176D01*
X-8711202Y-6772352D01*
X-8723775Y-6783528D01*
X-8761494Y-6783528D01*
X-8774067Y-6772352D01*
X-8748921Y-6750000D02*
X-8723775Y-6750000D01*
D70*
X-7883160Y-6887160D02*
X-7354840Y-6887160D01*
X-7354840Y-6612840D01*
X-7883160Y-6612840D01*
X-7883160Y-6887160D01*
D28*
X-7746000Y-6750000D02*
X-7746000Y-6750000D01*
D72*
X-7557786Y-6772352D02*
X-7570359Y-6783528D01*
X-7608078Y-6783528D01*
X-7633224Y-6761176D01*
X-7633224Y-6738824D01*
X-7608078Y-6716472D01*
X-7570359Y-6716472D01*
X-7557786Y-6727648D01*
X-7457202Y-6761176D02*
X-7532640Y-6761176D01*
X-7482348Y-6716472D01*
X-7482348Y-6783528D01*
D70*
X-6637160Y-6887160D02*
X-6108840Y-6887160D01*
X-6108840Y-6612840D01*
X-6637160Y-6612840D01*
X-6637160Y-6887160D01*
D28*
X-6500000Y-6750000D02*
X-6500000Y-6750000D01*
D72*
X-6311786Y-6772352D02*
X-6324359Y-6783528D01*
X-6362078Y-6783528D01*
X-6387224Y-6761176D01*
X-6387224Y-6738824D01*
X-6362078Y-6716472D01*
X-6324359Y-6716472D01*
X-6311786Y-6727648D01*
X-6211202Y-6716472D02*
X-6274067Y-6716472D01*
X-6274067Y-6738824D01*
X-6223775Y-6738824D01*
X-6211202Y-6750000D01*
X-6211202Y-6772352D01*
X-6223775Y-6783528D01*
X-6261494Y-6783528D01*
X-6274067Y-6772352D01*
D70*
X-5387160Y-6887160D02*
X-4858840Y-6887160D01*
X-4858840Y-6612840D01*
X-5387160Y-6612840D01*
X-5387160Y-6887160D01*
D28*
X-5250000Y-6750000D02*
X-5250000Y-6750000D01*
D72*
X-5061786Y-6772352D02*
X-5074359Y-6783528D01*
X-5112078Y-6783528D01*
X-5137224Y-6761176D01*
X-5137224Y-6738824D01*
X-5112078Y-6716472D01*
X-5074359Y-6716472D01*
X-5061786Y-6727648D01*
X-4961202Y-6727648D02*
X-4973775Y-6716472D01*
X-5011494Y-6716472D01*
X-5024067Y-6727648D01*
X-5024067Y-6772352D01*
X-5011494Y-6783528D01*
X-4973775Y-6783528D01*
X-4961202Y-6772352D01*
X-4961202Y-6761176D01*
X-4973775Y-6750000D01*
X-5024067Y-6750000D01*
D70*
X-4137160Y-6887160D02*
X-3608840Y-6887160D01*
X-3608840Y-6612840D01*
X-4137160Y-6612840D01*
X-4137160Y-6887160D01*
D28*
X-4000000Y-6750000D02*
X-4000000Y-6750000D01*
D72*
X-3811786Y-6772352D02*
X-3824359Y-6783528D01*
X-3862078Y-6783528D01*
X-3887224Y-6761176D01*
X-3887224Y-6738824D01*
X-3862078Y-6716472D01*
X-3824359Y-6716472D01*
X-3811786Y-6727648D01*
X-3774067Y-6716472D02*
X-3711202Y-6716472D01*
X-3711202Y-6727648D01*
X-3774067Y-6783528D01*
D70*
X-2637160Y-6887160D02*
X-2108840Y-6887160D01*
X-2108840Y-6612840D01*
X-2637160Y-6612840D01*
X-2637160Y-6887160D01*
D28*
X-2500000Y-6750000D02*
X-2500000Y-6750000D01*
D72*
X-2311786Y-6772352D02*
X-2324359Y-6783528D01*
X-2362078Y-6783528D01*
X-2387224Y-6761176D01*
X-2387224Y-6738824D01*
X-2362078Y-6716472D01*
X-2324359Y-6716472D01*
X-2311786Y-6727648D01*
X-2261494Y-6750000D02*
X-2274067Y-6738824D01*
X-2274067Y-6727648D01*
X-2261494Y-6716472D01*
X-2223775Y-6716472D01*
X-2211202Y-6727648D01*
X-2211202Y-6738824D01*
X-2223775Y-6750000D01*
X-2261494Y-6750000D01*
X-2274067Y-6761176D01*
X-2274067Y-6772352D01*
X-2261494Y-6783528D01*
X-2223775Y-6783528D01*
X-2211202Y-6772352D01*
X-2211202Y-6761176D01*
X-2223775Y-6750000D01*
D70*
X-1387160Y-6887160D02*
X-858840Y-6887160D01*
X-858840Y-6612840D01*
X-1387160Y-6612840D01*
X-1387160Y-6887160D01*
D28*
X-1250000Y-6750000D02*
X-1250000Y-6750000D01*
D72*
X-1061786Y-6772352D02*
X-1074359Y-6783528D01*
X-1112078Y-6783528D01*
X-1137224Y-6761176D01*
X-1137224Y-6738824D01*
X-1112078Y-6716472D01*
X-1074359Y-6716472D01*
X-1061786Y-6727648D01*
X-961202Y-6738824D02*
X-973775Y-6750000D01*
X-1011494Y-6750000D01*
X-1024067Y-6738824D01*
X-1024067Y-6727648D01*
X-1011494Y-6716472D01*
X-973775Y-6716472D01*
X-961202Y-6727648D01*
X-961202Y-6772352D01*
X-973775Y-6783528D01*
X-1011494Y-6783528D01*
D70*
X+362840Y-6887160D02*
X+891160Y-6887160D01*
X+891160Y-6612840D01*
X+362840Y-6612840D01*
X+362840Y-6887160D01*
D28*
X+500000Y-6750000D02*
X+500000Y-6750000D01*
D72*
X+637922Y-6772352D02*
X+625349Y-6783528D01*
X+587630Y-6783528D01*
X+562484Y-6761176D01*
X+562484Y-6738824D01*
X+587630Y-6716472D01*
X+625349Y-6716472D01*
X+637922Y-6727648D01*
X+688214Y-6738824D02*
X+713360Y-6716472D01*
X+713360Y-6783528D01*
X+763652Y-6772352D02*
X+763652Y-6727648D01*
X+776225Y-6716472D01*
X+826517Y-6716472D01*
X+839090Y-6727648D01*
X+839090Y-6772352D01*
X+826517Y-6783528D01*
X+776225Y-6783528D01*
X+763652Y-6772352D01*
X+763652Y-6783528D02*
X+839090Y-6716472D01*
D70*
X+299340Y-6014160D02*
X+891160Y-6014160D01*
X+891160Y-5422340D01*
X+299340Y-5422340D01*
X+299340Y-6014160D01*
D73*
X+754000Y-5750000D02*
X+754000Y-5750000D01*
D30*
X+563500Y-5889700D02*
X+449200Y-5889700D01*
X+449200Y-5803975D01*
X+487300Y-5761113D01*
X+525400Y-5761113D01*
X+563500Y-5803975D01*
X+563500Y-5889700D01*
X+487300Y-5675388D02*
X+449200Y-5632525D01*
X+563500Y-5632525D01*
D70*
X-1450660Y-6014160D02*
X-858840Y-6014160D01*
X-858840Y-5422340D01*
X-1450660Y-5422340D01*
X-1450660Y-6014160D01*
D73*
X-996000Y-5750000D02*
X-996000Y-5750000D01*
D30*
X-1186500Y-5889700D02*
X-1300800Y-5889700D01*
X-1300800Y-5803975D01*
X-1262700Y-5761113D01*
X-1224600Y-5761113D01*
X-1186500Y-5803975D01*
X-1186500Y-5889700D01*
X-1300800Y-5589663D02*
X-1300800Y-5696819D01*
X-1262700Y-5696819D01*
X-1262700Y-5611094D01*
X-1243650Y-5589663D01*
X-1205550Y-5589663D01*
X-1186500Y-5611094D01*
X-1186500Y-5675388D01*
X-1205550Y-5696819D01*
D70*
X-2700660Y-6014160D02*
X-2108840Y-6014160D01*
X-2108840Y-5422340D01*
X-2700660Y-5422340D01*
X-2700660Y-6014160D01*
D73*
X-2246000Y-5750000D02*
X-2246000Y-5750000D01*
D30*
X-2436500Y-5889700D02*
X-2550800Y-5889700D01*
X-2550800Y-5803975D01*
X-2512700Y-5761113D01*
X-2474600Y-5761113D01*
X-2436500Y-5803975D01*
X-2436500Y-5889700D01*
X-2531750Y-5696819D02*
X-2550800Y-5675388D01*
X-2550800Y-5611094D01*
X-2531750Y-5589663D01*
X-2512700Y-5589663D01*
X-2493650Y-5611094D01*
X-2493650Y-5675388D01*
X-2474600Y-5696819D01*
X-2436500Y-5696819D01*
X-2436500Y-5589663D01*
D70*
X-4200660Y-6014160D02*
X-3608840Y-6014160D01*
X-3608840Y-5422340D01*
X-4200660Y-5422340D01*
X-4200660Y-6014160D01*
D73*
X-3746000Y-5750000D02*
X-3746000Y-5750000D01*
D30*
X-3936500Y-5889700D02*
X-4050800Y-5889700D01*
X-4050800Y-5803975D01*
X-4012700Y-5761113D01*
X-3974600Y-5761113D01*
X-3936500Y-5803975D01*
X-3936500Y-5889700D01*
X-4031750Y-5589663D02*
X-4050800Y-5611094D01*
X-4050800Y-5675388D01*
X-4031750Y-5696819D01*
X-3955550Y-5696819D01*
X-3936500Y-5675388D01*
X-3936500Y-5611094D01*
X-3955550Y-5589663D01*
X-3974600Y-5589663D01*
X-3993650Y-5611094D01*
X-3993650Y-5696819D01*
D70*
X-5450660Y-6014160D02*
X-4858840Y-6014160D01*
X-4858840Y-5422340D01*
X-5450660Y-5422340D01*
X-5450660Y-6014160D01*
D73*
X-4996000Y-5750000D02*
X-4996000Y-5750000D01*
D30*
X-5186500Y-5889700D02*
X-5300800Y-5889700D01*
X-5300800Y-5803975D01*
X-5262700Y-5761113D01*
X-5224600Y-5761113D01*
X-5186500Y-5803975D01*
X-5186500Y-5889700D01*
X-5281750Y-5696819D02*
X-5300800Y-5675388D01*
X-5300800Y-5611094D01*
X-5281750Y-5589663D01*
X-5262700Y-5589663D01*
X-5243650Y-5611094D01*
X-5224600Y-5589663D01*
X-5205550Y-5589663D01*
X-5186500Y-5611094D01*
X-5186500Y-5675388D01*
X-5205550Y-5696819D01*
X-5243650Y-5653957D02*
X-5243650Y-5611094D01*
D70*
X-6700660Y-6014160D02*
X-6108840Y-6014160D01*
X-6108840Y-5422340D01*
X-6700660Y-5422340D01*
X-6700660Y-6014160D01*
D73*
X-6246000Y-5750000D02*
X-6246000Y-5750000D01*
D30*
X-6436500Y-5889700D02*
X-6550800Y-5889700D01*
X-6550800Y-5803975D01*
X-6512700Y-5761113D01*
X-6474600Y-5761113D01*
X-6436500Y-5803975D01*
X-6436500Y-5889700D01*
X-6550800Y-5696819D02*
X-6550800Y-5589663D01*
X-6531750Y-5589663D01*
X-6436500Y-5696819D01*
D70*
X-7950660Y-6014160D02*
X-7358840Y-6014160D01*
X-7358840Y-5422340D01*
X-7950660Y-5422340D01*
X-7950660Y-6014160D01*
D73*
X-7496000Y-5750000D02*
X-7496000Y-5750000D01*
D30*
X-7686500Y-5889700D02*
X-7800800Y-5889700D01*
X-7800800Y-5803975D01*
X-7762700Y-5761113D01*
X-7724600Y-5761113D01*
X-7686500Y-5803975D01*
X-7686500Y-5889700D01*
X-7724600Y-5589663D02*
X-7724600Y-5718250D01*
X-7800800Y-5632525D01*
X-7686500Y-5632525D01*
D70*
X-9200660Y-6014160D02*
X-8608840Y-6014160D01*
X-8608840Y-5422340D01*
X-9200660Y-5422340D01*
X-9200660Y-6014160D01*
D73*
X-8746000Y-5750000D02*
X-8746000Y-5750000D01*
D30*
X-8936500Y-5889700D02*
X-9050800Y-5889700D01*
X-9050800Y-5803975D01*
X-9012700Y-5761113D01*
X-8974600Y-5761113D01*
X-8936500Y-5803975D01*
X-8936500Y-5889700D01*
X-8993650Y-5675388D02*
X-9012700Y-5696819D01*
X-9031750Y-5696819D01*
X-9050800Y-5675388D01*
X-9050800Y-5611094D01*
X-9031750Y-5589663D01*
X-9012700Y-5589663D01*
X-8993650Y-5611094D01*
X-8993650Y-5675388D01*
X-8974600Y-5696819D01*
X-8955550Y-5696819D01*
X-8936500Y-5675388D01*
X-8936500Y-5611094D01*
X-8955550Y-5589663D01*
X-8974600Y-5589663D01*
X-8993650Y-5611094D01*
D70*
X-6213160Y-4587500D02*
X-1112840Y-4587500D01*
X-1112840Y-2936500D01*
X-6213160Y-2936500D01*
X-6213160Y-4587500D01*
D31*
X-1250000Y-3000000D02*
X-1250000Y-3000000D01*
D32*
X-4488692Y-3513862D02*
X-4488692Y-3927425D01*
X-4395641Y-4010137D01*
X-4023435Y-4010137D01*
X-3930383Y-3927425D01*
X-3930383Y-3513862D01*
X-3558177Y-3679287D02*
X-3372074Y-3513862D01*
X-3372074Y-4010137D01*
D70*
X-4391160Y-2137160D02*
X-3608840Y-2137160D01*
X-3608840Y-1735840D01*
X-4391160Y-1735840D01*
X-4391160Y-2137160D01*
D73*
X-4254000Y-2000000D02*
X-4254000Y-2000000D01*
D33*
X-4086359Y-1878080D02*
X-4086359Y-1975447D01*
X-4064452Y-1994920D01*
X-3976823Y-1994920D01*
X-3954915Y-1975447D01*
X-3954915Y-1878080D01*
X-3889193Y-1897553D02*
X-3867286Y-1878080D01*
X-3801564Y-1878080D01*
X-3779656Y-1897553D01*
X-3779656Y-1917027D01*
X-3801564Y-1936500D01*
X-3867286Y-1936500D01*
X-3889193Y-1955973D01*
X-3889193Y-1994920D01*
X-3779656Y-1994920D01*
D70*
X-5137160Y-2637160D02*
X-4608840Y-2637160D01*
X-4608840Y-2362840D01*
X-5137160Y-2362840D01*
X-5137160Y-2637160D01*
D28*
X-5000000Y-2500000D02*
X-5000000Y-2500000D01*
D72*
X-4811786Y-2522352D02*
X-4824359Y-2533528D01*
X-4862078Y-2533528D01*
X-4887224Y-2511176D01*
X-4887224Y-2488824D01*
X-4862078Y-2466472D01*
X-4824359Y-2466472D01*
X-4811786Y-2477648D01*
X-4761494Y-2488824D02*
X-4736348Y-2466472D01*
X-4736348Y-2533528D01*
D70*
X-3387160Y-2637160D02*
X-2858840Y-2637160D01*
X-2858840Y-2362840D01*
X-3387160Y-2362840D01*
X-3387160Y-2637160D01*
D28*
X-3250000Y-2500000D02*
X-3250000Y-2500000D01*
D72*
X-3061786Y-2522352D02*
X-3074359Y-2533528D01*
X-3112078Y-2533528D01*
X-3137224Y-2511176D01*
X-3137224Y-2488824D01*
X-3112078Y-2466472D01*
X-3074359Y-2466472D01*
X-3061786Y-2477648D01*
X-3024067Y-2477648D02*
X-3011494Y-2466472D01*
X-2973775Y-2466472D01*
X-2961202Y-2477648D01*
X-2961202Y-2488824D01*
X-2973775Y-2500000D01*
X-3011494Y-2500000D01*
X-3024067Y-2511176D01*
X-3024067Y-2533528D01*
X-2961202Y-2533528D01*
D70*
X-9387160Y-2637160D02*
X-8858840Y-2637160D01*
X-8858840Y-2362840D01*
X-9387160Y-2362840D01*
X-9387160Y-2637160D01*
D73*
X-9250000Y-2500000D02*
X-9250000Y-2500000D01*
D34*
X-9182690Y-2524765D02*
X-9182690Y-2475235D01*
X-9136256Y-2475235D01*
X-9126969Y-2483490D01*
X-9126969Y-2491745D01*
X-9136256Y-2500000D01*
X-9126969Y-2508255D01*
X-9126969Y-2516510D01*
X-9136256Y-2524765D01*
X-9182690Y-2524765D01*
X-9182690Y-2500000D02*
X-9136256Y-2500000D01*
X-9108395Y-2524765D02*
X-9108395Y-2491745D01*
X-9089822Y-2475235D01*
X-9071248Y-2475235D01*
X-9052674Y-2491745D01*
X-9052674Y-2524765D01*
X-9108395Y-2508255D02*
X-9052674Y-2508255D01*
X-9034100Y-2475235D02*
X-8978379Y-2475235D01*
X-9006240Y-2475235D02*
X-9006240Y-2524765D01*
X-8941232Y-2491745D02*
X-8922658Y-2475235D01*
X-8922658Y-2524765D01*
D70*
X-1137160Y-2137160D02*
X-608840Y-2137160D01*
X-608840Y-1862840D01*
X-1137160Y-1862840D01*
X-1137160Y-2137160D01*
D73*
X-1000000Y-2000000D02*
X-1000000Y-2000000D01*
D34*
X-932690Y-2024765D02*
X-932690Y-1975235D01*
X-886256Y-1975235D01*
X-876969Y-1983490D01*
X-876969Y-1991745D01*
X-886256Y-2000000D01*
X-876969Y-2008255D01*
X-876969Y-2016510D01*
X-886256Y-2024765D01*
X-932690Y-2024765D01*
X-932690Y-2000000D02*
X-886256Y-2000000D01*
X-858395Y-1975235D02*
X-858395Y-2016510D01*
X-849109Y-2024765D01*
X-811961Y-2024765D01*
X-802674Y-2016510D01*
X-802674Y-1975235D01*
X-784100Y-1975235D02*
X-728379Y-1975235D01*
X-784100Y-2024765D01*
X-728379Y-2024765D01*
X-691232Y-1991745D02*
X-672658Y-1975235D01*
X-672658Y-2024765D01*
D70*
X-588900Y-3354900D02*
X-411100Y-3354900D01*
X-411100Y-2161100D01*
X-588900Y-2161100D01*
X-588900Y-3354900D01*
D28*
X-500000Y-2250000D02*
X-500000Y-2250000D01*
D29*
X-466929Y-2919442D02*
X-533070Y-2919442D01*
X-533070Y-2857435D01*
X-522047Y-2845033D01*
X-511023Y-2845033D01*
X-500000Y-2857435D01*
X-500000Y-2919442D01*
X-500000Y-2857435D02*
X-488976Y-2845033D01*
X-466929Y-2845033D01*
X-511023Y-2745821D02*
X-500000Y-2758223D01*
X-500000Y-2795427D01*
X-511023Y-2807829D01*
X-522047Y-2807829D01*
X-533070Y-2795427D01*
X-533070Y-2758223D01*
X-522047Y-2745821D01*
X-477952Y-2745821D01*
X-466929Y-2758223D01*
X-466929Y-2795427D01*
D70*
X-77660Y-4137160D02*
X+577660Y-4137160D01*
X+577660Y-3862840D01*
X-77660Y-3862840D01*
X-77660Y-4137160D01*
D35*
X+46800Y-4000000D02*
X+46800Y-4000000D01*
D36*
X+183452Y-3983998D02*
X+219456Y-3951994D01*
X+255461Y-3951994D01*
X+291465Y-3983998D01*
X+291465Y-4016002D01*
X+255461Y-4048006D01*
X+219456Y-4048006D01*
X+183452Y-4016002D01*
X+183452Y-3983998D01*
X+255461Y-4016002D02*
X+291465Y-4048006D01*
X+363474Y-3983998D02*
X+399479Y-3951994D01*
X+399479Y-4048006D01*
D19*
X-9750000Y-9750000D02*
X+1750000Y-9750000D01*
X+1750000Y-1500000D01*
X-9750000Y-1500000D01*
X-9750000Y-9750000D01*
X-7750000Y-1953200D02*
X-7750000Y-1800800D01*
X-7597600Y-1800800D02*
X-7597600Y-1953200D01*
X-7750000Y-1877000D02*
X-7597600Y-1877000D01*
X-7546800Y-1851600D02*
X-7546800Y-1927800D01*
X-7521400Y-1953200D01*
X-7419800Y-1953200D01*
X-7394400Y-1927800D01*
X-7394400Y-1953200D02*
X-7394400Y-1851600D01*
X-7267400Y-1800800D02*
X-7267400Y-1953200D01*
X-7140400Y-1902400D02*
X-6988000Y-1902400D01*
X-6988000Y-1877000D01*
X-7013400Y-1851600D01*
X-7115000Y-1851600D01*
X-7140400Y-1877000D01*
X-7140400Y-1927800D01*
X-7115000Y-1953200D01*
X-7013400Y-1953200D01*
X-6911800Y-1851600D02*
X-6810200Y-1851600D01*
X-6784800Y-1877000D01*
X-6784800Y-1953200D01*
X-6911800Y-1953200D01*
X-6937200Y-1927800D01*
X-6911800Y-1902400D01*
X-6784800Y-1902400D01*
X-6505400Y-1800800D02*
X-6403800Y-1800800D01*
X-6454600Y-1800800D02*
X-6454600Y-1953200D01*
X-6505400Y-1953200D02*
X-6403800Y-1953200D01*
X-6327600Y-1877000D02*
X-6302200Y-1851600D01*
X-6200600Y-1851600D01*
X-6175200Y-1877000D01*
X-6175200Y-1927800D01*
X-6200600Y-1953200D01*
X-6302200Y-1953200D01*
X-6327600Y-1927800D01*
X-6327600Y-1877000D01*
X-6099000Y-1851600D02*
X-5997400Y-1851600D01*
X-5972000Y-1877000D01*
X-5972000Y-1953200D01*
X-6099000Y-1953200D01*
X-6124400Y-1927800D01*
X-6099000Y-1902400D01*
X-5972000Y-1902400D01*
X-5921200Y-1953200D02*
X-5921200Y-1851600D01*
X-5921200Y-1877000D02*
X-5895800Y-1851600D01*
X-5794200Y-1851600D01*
X-5768800Y-1877000D01*
X-5768800Y-1953200D01*
X-5692600Y-1851600D02*
X-5591000Y-1851600D01*
X-5565600Y-1877000D01*
X-5565600Y-1953200D01*
X-5692600Y-1953200D01*
X-5718000Y-1927800D01*
X-5692600Y-1902400D01*
X-5565600Y-1902400D01*
M02*
