G04 PROTEUS GERBER X2 FILE*
%TF.GenerationSoftware,Labcenter,Proteus,8.13-SP0-Build31525*%
%TF.CreationDate,2025-10-06T08:39:33+00:00*%
%TF.FileFunction,Legend,Top*%
%TF.FilePolarity,Positive*%
%TF.Part,Single*%
%TF.SameCoordinates,{e836b8dc-1bae-4307-972e-94e507faed55}*%
%FSLAX45Y45*%
%MOMM*%
G01*
%TA.AperFunction,Material*%
%ADD70C,0.203200*%
%TA.AperFunction,Profile*%
%ADD19C,0.203200*%
%TD.AperFunction*%
D70*
X-9750000Y-9750000D02*
X+1750000Y-9750000D01*
X+1750000Y-1500000D01*
X-9750000Y-1500000D01*
X-9750000Y-9750000D01*
X+1750000Y-9750000D01*
X+1750000Y-1500000D01*
X-9750000Y-1500000D01*
X-9750000Y-9750000D01*
X-975000Y-9000000D02*
X-375000Y-9000000D01*
X-375000Y-8550000D01*
X-975000Y-8550000D01*
X-975000Y-9000000D01*
X-802000Y-8509360D02*
X-802000Y-8417920D01*
X-722625Y-8417920D01*
X-706750Y-8433160D01*
X-706750Y-8448400D01*
X-722625Y-8463640D01*
X-706750Y-8478880D01*
X-706750Y-8494120D01*
X-722625Y-8509360D01*
X-802000Y-8509360D01*
X-802000Y-8463640D02*
X-722625Y-8463640D01*
X-659125Y-8433160D02*
X-643250Y-8417920D01*
X-595625Y-8417920D01*
X-579750Y-8433160D01*
X-579750Y-8448400D01*
X-595625Y-8463640D01*
X-643250Y-8463640D01*
X-659125Y-8478880D01*
X-659125Y-8509360D01*
X-579750Y-8509360D01*
X-2475000Y-9000000D02*
X-1875000Y-9000000D01*
X-1875000Y-8550000D01*
X-2475000Y-8550000D01*
X-2475000Y-9000000D01*
X-2302000Y-8509360D02*
X-2302000Y-8417920D01*
X-2222625Y-8417920D01*
X-2206750Y-8433160D01*
X-2206750Y-8448400D01*
X-2222625Y-8463640D01*
X-2206750Y-8478880D01*
X-2206750Y-8494120D01*
X-2222625Y-8509360D01*
X-2302000Y-8509360D01*
X-2302000Y-8463640D02*
X-2222625Y-8463640D01*
X-2159125Y-8433160D02*
X-2143250Y-8417920D01*
X-2095625Y-8417920D01*
X-2079750Y-8433160D01*
X-2079750Y-8448400D01*
X-2095625Y-8463640D01*
X-2079750Y-8478880D01*
X-2079750Y-8494120D01*
X-2095625Y-8509360D01*
X-2143250Y-8509360D01*
X-2159125Y-8494120D01*
X-2127375Y-8463640D02*
X-2095625Y-8463640D01*
X+525000Y-9000000D02*
X+1125000Y-9000000D01*
X+1125000Y-8550000D01*
X+525000Y-8550000D01*
X+525000Y-9000000D01*
X+698000Y-8509360D02*
X+698000Y-8417920D01*
X+777375Y-8417920D01*
X+793250Y-8433160D01*
X+793250Y-8448400D01*
X+777375Y-8463640D01*
X+793250Y-8478880D01*
X+793250Y-8494120D01*
X+777375Y-8509360D01*
X+698000Y-8509360D01*
X+698000Y-8463640D02*
X+777375Y-8463640D01*
X+856750Y-8448400D02*
X+888500Y-8417920D01*
X+888500Y-8509360D01*
X-3975000Y-9000000D02*
X-3375000Y-9000000D01*
X-3375000Y-8550000D01*
X-3975000Y-8550000D01*
X-3975000Y-9000000D01*
X-3802000Y-8509360D02*
X-3802000Y-8417920D01*
X-3722625Y-8417920D01*
X-3706750Y-8433160D01*
X-3706750Y-8448400D01*
X-3722625Y-8463640D01*
X-3706750Y-8478880D01*
X-3706750Y-8494120D01*
X-3722625Y-8509360D01*
X-3802000Y-8509360D01*
X-3802000Y-8463640D02*
X-3722625Y-8463640D01*
X-3579750Y-8478880D02*
X-3675000Y-8478880D01*
X-3611500Y-8417920D01*
X-3611500Y-8509360D01*
X-5475000Y-9000000D02*
X-4875000Y-9000000D01*
X-4875000Y-8550000D01*
X-5475000Y-8550000D01*
X-5475000Y-9000000D01*
X-5302000Y-8509360D02*
X-5302000Y-8417920D01*
X-5222625Y-8417920D01*
X-5206750Y-8433160D01*
X-5206750Y-8448400D01*
X-5222625Y-8463640D01*
X-5206750Y-8478880D01*
X-5206750Y-8494120D01*
X-5222625Y-8509360D01*
X-5302000Y-8509360D01*
X-5302000Y-8463640D02*
X-5222625Y-8463640D01*
X-5079750Y-8417920D02*
X-5159125Y-8417920D01*
X-5159125Y-8448400D01*
X-5095625Y-8448400D01*
X-5079750Y-8463640D01*
X-5079750Y-8494120D01*
X-5095625Y-8509360D01*
X-5143250Y-8509360D01*
X-5159125Y-8494120D01*
X-6725000Y-9000000D02*
X-6125000Y-9000000D01*
X-6125000Y-8550000D01*
X-6725000Y-8550000D01*
X-6725000Y-9000000D01*
X-6552000Y-8509360D02*
X-6552000Y-8417920D01*
X-6472625Y-8417920D01*
X-6456750Y-8433160D01*
X-6456750Y-8448400D01*
X-6472625Y-8463640D01*
X-6456750Y-8478880D01*
X-6456750Y-8494120D01*
X-6472625Y-8509360D01*
X-6552000Y-8509360D01*
X-6552000Y-8463640D02*
X-6472625Y-8463640D01*
X-6329750Y-8433160D02*
X-6345625Y-8417920D01*
X-6393250Y-8417920D01*
X-6409125Y-8433160D01*
X-6409125Y-8494120D01*
X-6393250Y-8509360D01*
X-6345625Y-8509360D01*
X-6329750Y-8494120D01*
X-6329750Y-8478880D01*
X-6345625Y-8463640D01*
X-6409125Y-8463640D01*
X-7975000Y-9000000D02*
X-7375000Y-9000000D01*
X-7375000Y-8550000D01*
X-7975000Y-8550000D01*
X-7975000Y-9000000D01*
X-7802000Y-8509360D02*
X-7802000Y-8417920D01*
X-7722625Y-8417920D01*
X-7706750Y-8433160D01*
X-7706750Y-8448400D01*
X-7722625Y-8463640D01*
X-7706750Y-8478880D01*
X-7706750Y-8494120D01*
X-7722625Y-8509360D01*
X-7802000Y-8509360D01*
X-7802000Y-8463640D02*
X-7722625Y-8463640D01*
X-7659125Y-8417920D02*
X-7579750Y-8417920D01*
X-7579750Y-8433160D01*
X-7659125Y-8509360D01*
X-9225000Y-9000000D02*
X-8625000Y-9000000D01*
X-8625000Y-8550000D01*
X-9225000Y-8550000D01*
X-9225000Y-9000000D01*
X-9052000Y-8509360D02*
X-9052000Y-8417920D01*
X-8972625Y-8417920D01*
X-8956750Y-8433160D01*
X-8956750Y-8448400D01*
X-8972625Y-8463640D01*
X-8956750Y-8478880D01*
X-8956750Y-8494120D01*
X-8972625Y-8509360D01*
X-9052000Y-8509360D01*
X-9052000Y-8463640D02*
X-8972625Y-8463640D01*
X-8893250Y-8463640D02*
X-8909125Y-8448400D01*
X-8909125Y-8433160D01*
X-8893250Y-8417920D01*
X-8845625Y-8417920D01*
X-8829750Y-8433160D01*
X-8829750Y-8448400D01*
X-8845625Y-8463640D01*
X-8893250Y-8463640D01*
X-8909125Y-8478880D01*
X-8909125Y-8494120D01*
X-8893250Y-8509360D01*
X-8845625Y-8509360D01*
X-8829750Y-8494120D01*
X-8829750Y-8478880D01*
X-8845625Y-8463640D01*
X+377000Y-7750000D02*
X+504000Y-7750000D01*
X+504000Y-7813500D02*
X+1012000Y-7813500D01*
X+1012000Y-7686500D01*
X+504000Y-7686500D01*
X+504000Y-7813500D01*
X+1012000Y-7750000D02*
X+1139000Y-7750000D01*
X+631000Y-7645860D02*
X+631000Y-7554420D01*
X+710375Y-7554420D01*
X+726250Y-7569660D01*
X+726250Y-7584900D01*
X+710375Y-7600140D01*
X+631000Y-7600140D01*
X+710375Y-7600140D02*
X+726250Y-7615380D01*
X+726250Y-7645860D01*
X+789750Y-7584900D02*
X+821500Y-7554420D01*
X+821500Y-7645860D01*
X-1123000Y-7750000D02*
X-996000Y-7750000D01*
X-996000Y-7813500D02*
X-488000Y-7813500D01*
X-488000Y-7686500D01*
X-996000Y-7686500D01*
X-996000Y-7813500D01*
X-488000Y-7750000D02*
X-361000Y-7750000D01*
X-869000Y-7645860D02*
X-869000Y-7554420D01*
X-789625Y-7554420D01*
X-773750Y-7569660D01*
X-773750Y-7584900D01*
X-789625Y-7600140D01*
X-869000Y-7600140D01*
X-789625Y-7600140D02*
X-773750Y-7615380D01*
X-773750Y-7645860D01*
X-726125Y-7569660D02*
X-710250Y-7554420D01*
X-662625Y-7554420D01*
X-646750Y-7569660D01*
X-646750Y-7584900D01*
X-662625Y-7600140D01*
X-710250Y-7600140D01*
X-726125Y-7615380D01*
X-726125Y-7645860D01*
X-646750Y-7645860D01*
X-2623000Y-7750000D02*
X-2496000Y-7750000D01*
X-2496000Y-7813500D02*
X-1988000Y-7813500D01*
X-1988000Y-7686500D01*
X-2496000Y-7686500D01*
X-2496000Y-7813500D01*
X-1988000Y-7750000D02*
X-1861000Y-7750000D01*
X-2369000Y-7645860D02*
X-2369000Y-7554420D01*
X-2289625Y-7554420D01*
X-2273750Y-7569660D01*
X-2273750Y-7584900D01*
X-2289625Y-7600140D01*
X-2369000Y-7600140D01*
X-2289625Y-7600140D02*
X-2273750Y-7615380D01*
X-2273750Y-7645860D01*
X-2226125Y-7569660D02*
X-2210250Y-7554420D01*
X-2162625Y-7554420D01*
X-2146750Y-7569660D01*
X-2146750Y-7584900D01*
X-2162625Y-7600140D01*
X-2146750Y-7615380D01*
X-2146750Y-7630620D01*
X-2162625Y-7645860D01*
X-2210250Y-7645860D01*
X-2226125Y-7630620D01*
X-2194375Y-7600140D02*
X-2162625Y-7600140D01*
X-4123000Y-7750000D02*
X-3996000Y-7750000D01*
X-3996000Y-7813500D02*
X-3488000Y-7813500D01*
X-3488000Y-7686500D01*
X-3996000Y-7686500D01*
X-3996000Y-7813500D01*
X-3488000Y-7750000D02*
X-3361000Y-7750000D01*
X-3869000Y-7645860D02*
X-3869000Y-7554420D01*
X-3789625Y-7554420D01*
X-3773750Y-7569660D01*
X-3773750Y-7584900D01*
X-3789625Y-7600140D01*
X-3869000Y-7600140D01*
X-3789625Y-7600140D02*
X-3773750Y-7615380D01*
X-3773750Y-7645860D01*
X-3646750Y-7615380D02*
X-3742000Y-7615380D01*
X-3678500Y-7554420D01*
X-3678500Y-7645860D01*
X-5623000Y-7750000D02*
X-5496000Y-7750000D01*
X-5496000Y-7813500D02*
X-4988000Y-7813500D01*
X-4988000Y-7686500D01*
X-5496000Y-7686500D01*
X-5496000Y-7813500D01*
X-4988000Y-7750000D02*
X-4861000Y-7750000D01*
X-5369000Y-7645860D02*
X-5369000Y-7554420D01*
X-5289625Y-7554420D01*
X-5273750Y-7569660D01*
X-5273750Y-7584900D01*
X-5289625Y-7600140D01*
X-5369000Y-7600140D01*
X-5289625Y-7600140D02*
X-5273750Y-7615380D01*
X-5273750Y-7645860D01*
X-5146750Y-7554420D02*
X-5226125Y-7554420D01*
X-5226125Y-7584900D01*
X-5162625Y-7584900D01*
X-5146750Y-7600140D01*
X-5146750Y-7630620D01*
X-5162625Y-7645860D01*
X-5210250Y-7645860D01*
X-5226125Y-7630620D01*
X-6873000Y-7750000D02*
X-6746000Y-7750000D01*
X-6746000Y-7813500D02*
X-6238000Y-7813500D01*
X-6238000Y-7686500D01*
X-6746000Y-7686500D01*
X-6746000Y-7813500D01*
X-6238000Y-7750000D02*
X-6111000Y-7750000D01*
X-6619000Y-7645860D02*
X-6619000Y-7554420D01*
X-6539625Y-7554420D01*
X-6523750Y-7569660D01*
X-6523750Y-7584900D01*
X-6539625Y-7600140D01*
X-6619000Y-7600140D01*
X-6539625Y-7600140D02*
X-6523750Y-7615380D01*
X-6523750Y-7645860D01*
X-6396750Y-7569660D02*
X-6412625Y-7554420D01*
X-6460250Y-7554420D01*
X-6476125Y-7569660D01*
X-6476125Y-7630620D01*
X-6460250Y-7645860D01*
X-6412625Y-7645860D01*
X-6396750Y-7630620D01*
X-6396750Y-7615380D01*
X-6412625Y-7600140D01*
X-6476125Y-7600140D01*
X-8123000Y-7750000D02*
X-7996000Y-7750000D01*
X-7996000Y-7813500D02*
X-7488000Y-7813500D01*
X-7488000Y-7686500D01*
X-7996000Y-7686500D01*
X-7996000Y-7813500D01*
X-7488000Y-7750000D02*
X-7361000Y-7750000D01*
X-7869000Y-7645860D02*
X-7869000Y-7554420D01*
X-7789625Y-7554420D01*
X-7773750Y-7569660D01*
X-7773750Y-7584900D01*
X-7789625Y-7600140D01*
X-7869000Y-7600140D01*
X-7789625Y-7600140D02*
X-7773750Y-7615380D01*
X-7773750Y-7645860D01*
X-7726125Y-7554420D02*
X-7646750Y-7554420D01*
X-7646750Y-7569660D01*
X-7726125Y-7645860D01*
X-9373000Y-7750000D02*
X-9246000Y-7750000D01*
X-9246000Y-7813500D02*
X-8738000Y-7813500D01*
X-8738000Y-7686500D01*
X-9246000Y-7686500D01*
X-9246000Y-7813500D01*
X-8738000Y-7750000D02*
X-8611000Y-7750000D01*
X-9119000Y-7645860D02*
X-9119000Y-7554420D01*
X-9039625Y-7554420D01*
X-9023750Y-7569660D01*
X-9023750Y-7584900D01*
X-9039625Y-7600140D01*
X-9119000Y-7600140D01*
X-9039625Y-7600140D02*
X-9023750Y-7615380D01*
X-9023750Y-7645860D01*
X-8960250Y-7600140D02*
X-8976125Y-7584900D01*
X-8976125Y-7569660D01*
X-8960250Y-7554420D01*
X-8912625Y-7554420D01*
X-8896750Y-7569660D01*
X-8896750Y-7584900D01*
X-8912625Y-7600140D01*
X-8960250Y-7600140D01*
X-8976125Y-7615380D01*
X-8976125Y-7630620D01*
X-8960250Y-7645860D01*
X-8912625Y-7645860D01*
X-8896750Y-7630620D01*
X-8896750Y-7615380D01*
X-8912625Y-7600140D01*
X-9127000Y-6750000D02*
X-9121920Y-6724124D01*
X-9107315Y-6700152D01*
X-9084138Y-6678562D01*
X-9053340Y-6659830D01*
X-9015875Y-6644431D01*
X-8972695Y-6632842D01*
X-8924752Y-6625540D01*
X-8873000Y-6623000D01*
X-8619000Y-6750000D02*
X-8624080Y-6724124D01*
X-8638685Y-6700152D01*
X-8661862Y-6678562D01*
X-8692660Y-6659830D01*
X-8730125Y-6644431D01*
X-8773305Y-6632842D01*
X-8821248Y-6625540D01*
X-8873000Y-6623000D01*
X-9127000Y-6750000D02*
X-9121920Y-6775876D01*
X-9107315Y-6799848D01*
X-9084138Y-6821438D01*
X-9053340Y-6840170D01*
X-9015875Y-6855569D01*
X-8972695Y-6867158D01*
X-8924752Y-6874460D01*
X-8873000Y-6877000D01*
X-8619000Y-6750000D02*
X-8624080Y-6775876D01*
X-8638685Y-6799848D01*
X-8661862Y-6821438D01*
X-8692660Y-6840170D01*
X-8730125Y-6855569D01*
X-8773305Y-6867158D01*
X-8821248Y-6874460D01*
X-8873000Y-6877000D01*
X-8904750Y-6567120D02*
X-8920625Y-6582360D01*
X-8968250Y-6582360D01*
X-9000000Y-6551880D01*
X-9000000Y-6521400D01*
X-8968250Y-6490920D01*
X-8920625Y-6490920D01*
X-8904750Y-6506160D01*
X-8857125Y-6506160D02*
X-8841250Y-6490920D01*
X-8793625Y-6490920D01*
X-8777750Y-6506160D01*
X-8777750Y-6521400D01*
X-8793625Y-6536640D01*
X-8777750Y-6551880D01*
X-8777750Y-6567120D01*
X-8793625Y-6582360D01*
X-8841250Y-6582360D01*
X-8857125Y-6567120D01*
X-8825375Y-6536640D02*
X-8793625Y-6536640D01*
X-7873000Y-6750000D02*
X-7867920Y-6724124D01*
X-7853315Y-6700152D01*
X-7830138Y-6678562D01*
X-7799340Y-6659830D01*
X-7761875Y-6644431D01*
X-7718695Y-6632842D01*
X-7670752Y-6625540D01*
X-7619000Y-6623000D01*
X-7365000Y-6750000D02*
X-7370080Y-6724124D01*
X-7384685Y-6700152D01*
X-7407862Y-6678562D01*
X-7438660Y-6659830D01*
X-7476125Y-6644431D01*
X-7519305Y-6632842D01*
X-7567248Y-6625540D01*
X-7619000Y-6623000D01*
X-7873000Y-6750000D02*
X-7867920Y-6775876D01*
X-7853315Y-6799848D01*
X-7830138Y-6821438D01*
X-7799340Y-6840170D01*
X-7761875Y-6855569D01*
X-7718695Y-6867158D01*
X-7670752Y-6874460D01*
X-7619000Y-6877000D01*
X-7365000Y-6750000D02*
X-7370080Y-6775876D01*
X-7384685Y-6799848D01*
X-7407862Y-6821438D01*
X-7438660Y-6840170D01*
X-7476125Y-6855569D01*
X-7519305Y-6867158D01*
X-7567248Y-6874460D01*
X-7619000Y-6877000D01*
X-7650750Y-6567120D02*
X-7666625Y-6582360D01*
X-7714250Y-6582360D01*
X-7746000Y-6551880D01*
X-7746000Y-6521400D01*
X-7714250Y-6490920D01*
X-7666625Y-6490920D01*
X-7650750Y-6506160D01*
X-7523750Y-6551880D02*
X-7619000Y-6551880D01*
X-7555500Y-6490920D01*
X-7555500Y-6582360D01*
X-6627000Y-6750000D02*
X-6621920Y-6724124D01*
X-6607315Y-6700152D01*
X-6584138Y-6678562D01*
X-6553340Y-6659830D01*
X-6515875Y-6644431D01*
X-6472695Y-6632842D01*
X-6424752Y-6625540D01*
X-6373000Y-6623000D01*
X-6119000Y-6750000D02*
X-6124080Y-6724124D01*
X-6138685Y-6700152D01*
X-6161862Y-6678562D01*
X-6192660Y-6659830D01*
X-6230125Y-6644431D01*
X-6273305Y-6632842D01*
X-6321248Y-6625540D01*
X-6373000Y-6623000D01*
X-6627000Y-6750000D02*
X-6621920Y-6775876D01*
X-6607315Y-6799848D01*
X-6584138Y-6821438D01*
X-6553340Y-6840170D01*
X-6515875Y-6855569D01*
X-6472695Y-6867158D01*
X-6424752Y-6874460D01*
X-6373000Y-6877000D01*
X-6119000Y-6750000D02*
X-6124080Y-6775876D01*
X-6138685Y-6799848D01*
X-6161862Y-6821438D01*
X-6192660Y-6840170D01*
X-6230125Y-6855569D01*
X-6273305Y-6867158D01*
X-6321248Y-6874460D01*
X-6373000Y-6877000D01*
X-6404750Y-6567120D02*
X-6420625Y-6582360D01*
X-6468250Y-6582360D01*
X-6500000Y-6551880D01*
X-6500000Y-6521400D01*
X-6468250Y-6490920D01*
X-6420625Y-6490920D01*
X-6404750Y-6506160D01*
X-6277750Y-6490920D02*
X-6357125Y-6490920D01*
X-6357125Y-6521400D01*
X-6293625Y-6521400D01*
X-6277750Y-6536640D01*
X-6277750Y-6567120D01*
X-6293625Y-6582360D01*
X-6341250Y-6582360D01*
X-6357125Y-6567120D01*
X-5377000Y-6750000D02*
X-5371920Y-6724124D01*
X-5357315Y-6700152D01*
X-5334138Y-6678562D01*
X-5303340Y-6659830D01*
X-5265875Y-6644431D01*
X-5222695Y-6632842D01*
X-5174752Y-6625540D01*
X-5123000Y-6623000D01*
X-4869000Y-6750000D02*
X-4874080Y-6724124D01*
X-4888685Y-6700152D01*
X-4911862Y-6678562D01*
X-4942660Y-6659830D01*
X-4980125Y-6644431D01*
X-5023305Y-6632842D01*
X-5071248Y-6625540D01*
X-5123000Y-6623000D01*
X-5377000Y-6750000D02*
X-5371920Y-6775876D01*
X-5357315Y-6799848D01*
X-5334138Y-6821438D01*
X-5303340Y-6840170D01*
X-5265875Y-6855569D01*
X-5222695Y-6867158D01*
X-5174752Y-6874460D01*
X-5123000Y-6877000D01*
X-4869000Y-6750000D02*
X-4874080Y-6775876D01*
X-4888685Y-6799848D01*
X-4911862Y-6821438D01*
X-4942660Y-6840170D01*
X-4980125Y-6855569D01*
X-5023305Y-6867158D01*
X-5071248Y-6874460D01*
X-5123000Y-6877000D01*
X-5154750Y-6567120D02*
X-5170625Y-6582360D01*
X-5218250Y-6582360D01*
X-5250000Y-6551880D01*
X-5250000Y-6521400D01*
X-5218250Y-6490920D01*
X-5170625Y-6490920D01*
X-5154750Y-6506160D01*
X-5027750Y-6506160D02*
X-5043625Y-6490920D01*
X-5091250Y-6490920D01*
X-5107125Y-6506160D01*
X-5107125Y-6567120D01*
X-5091250Y-6582360D01*
X-5043625Y-6582360D01*
X-5027750Y-6567120D01*
X-5027750Y-6551880D01*
X-5043625Y-6536640D01*
X-5107125Y-6536640D01*
X-4127000Y-6750000D02*
X-4121920Y-6724124D01*
X-4107315Y-6700152D01*
X-4084138Y-6678562D01*
X-4053340Y-6659830D01*
X-4015875Y-6644431D01*
X-3972695Y-6632842D01*
X-3924752Y-6625540D01*
X-3873000Y-6623000D01*
X-3619000Y-6750000D02*
X-3624080Y-6724124D01*
X-3638685Y-6700152D01*
X-3661862Y-6678562D01*
X-3692660Y-6659830D01*
X-3730125Y-6644431D01*
X-3773305Y-6632842D01*
X-3821248Y-6625540D01*
X-3873000Y-6623000D01*
X-4127000Y-6750000D02*
X-4121920Y-6775876D01*
X-4107315Y-6799848D01*
X-4084138Y-6821438D01*
X-4053340Y-6840170D01*
X-4015875Y-6855569D01*
X-3972695Y-6867158D01*
X-3924752Y-6874460D01*
X-3873000Y-6877000D01*
X-3619000Y-6750000D02*
X-3624080Y-6775876D01*
X-3638685Y-6799848D01*
X-3661862Y-6821438D01*
X-3692660Y-6840170D01*
X-3730125Y-6855569D01*
X-3773305Y-6867158D01*
X-3821248Y-6874460D01*
X-3873000Y-6877000D01*
X-3904750Y-6567120D02*
X-3920625Y-6582360D01*
X-3968250Y-6582360D01*
X-4000000Y-6551880D01*
X-4000000Y-6521400D01*
X-3968250Y-6490920D01*
X-3920625Y-6490920D01*
X-3904750Y-6506160D01*
X-3857125Y-6490920D02*
X-3777750Y-6490920D01*
X-3777750Y-6506160D01*
X-3857125Y-6582360D01*
X-2627000Y-6750000D02*
X-2621920Y-6724124D01*
X-2607315Y-6700152D01*
X-2584138Y-6678562D01*
X-2553340Y-6659830D01*
X-2515875Y-6644431D01*
X-2472695Y-6632842D01*
X-2424752Y-6625540D01*
X-2373000Y-6623000D01*
X-2119000Y-6750000D02*
X-2124080Y-6724124D01*
X-2138685Y-6700152D01*
X-2161862Y-6678562D01*
X-2192660Y-6659830D01*
X-2230125Y-6644431D01*
X-2273305Y-6632842D01*
X-2321248Y-6625540D01*
X-2373000Y-6623000D01*
X-2627000Y-6750000D02*
X-2621920Y-6775876D01*
X-2607315Y-6799848D01*
X-2584138Y-6821438D01*
X-2553340Y-6840170D01*
X-2515875Y-6855569D01*
X-2472695Y-6867158D01*
X-2424752Y-6874460D01*
X-2373000Y-6877000D01*
X-2119000Y-6750000D02*
X-2124080Y-6775876D01*
X-2138685Y-6799848D01*
X-2161862Y-6821438D01*
X-2192660Y-6840170D01*
X-2230125Y-6855569D01*
X-2273305Y-6867158D01*
X-2321248Y-6874460D01*
X-2373000Y-6877000D01*
X-2404750Y-6567120D02*
X-2420625Y-6582360D01*
X-2468250Y-6582360D01*
X-2500000Y-6551880D01*
X-2500000Y-6521400D01*
X-2468250Y-6490920D01*
X-2420625Y-6490920D01*
X-2404750Y-6506160D01*
X-2341250Y-6536640D02*
X-2357125Y-6521400D01*
X-2357125Y-6506160D01*
X-2341250Y-6490920D01*
X-2293625Y-6490920D01*
X-2277750Y-6506160D01*
X-2277750Y-6521400D01*
X-2293625Y-6536640D01*
X-2341250Y-6536640D01*
X-2357125Y-6551880D01*
X-2357125Y-6567120D01*
X-2341250Y-6582360D01*
X-2293625Y-6582360D01*
X-2277750Y-6567120D01*
X-2277750Y-6551880D01*
X-2293625Y-6536640D01*
X-1377000Y-6750000D02*
X-1371920Y-6724124D01*
X-1357315Y-6700152D01*
X-1334138Y-6678562D01*
X-1303340Y-6659830D01*
X-1265875Y-6644431D01*
X-1222695Y-6632842D01*
X-1174752Y-6625540D01*
X-1123000Y-6623000D01*
X-869000Y-6750000D02*
X-874080Y-6724124D01*
X-888685Y-6700152D01*
X-911862Y-6678562D01*
X-942660Y-6659830D01*
X-980125Y-6644431D01*
X-1023305Y-6632842D01*
X-1071248Y-6625540D01*
X-1123000Y-6623000D01*
X-1377000Y-6750000D02*
X-1371920Y-6775876D01*
X-1357315Y-6799848D01*
X-1334138Y-6821438D01*
X-1303340Y-6840170D01*
X-1265875Y-6855569D01*
X-1222695Y-6867158D01*
X-1174752Y-6874460D01*
X-1123000Y-6877000D01*
X-869000Y-6750000D02*
X-874080Y-6775876D01*
X-888685Y-6799848D01*
X-911862Y-6821438D01*
X-942660Y-6840170D01*
X-980125Y-6855569D01*
X-1023305Y-6867158D01*
X-1071248Y-6874460D01*
X-1123000Y-6877000D01*
X-1154750Y-6567120D02*
X-1170625Y-6582360D01*
X-1218250Y-6582360D01*
X-1250000Y-6551880D01*
X-1250000Y-6521400D01*
X-1218250Y-6490920D01*
X-1170625Y-6490920D01*
X-1154750Y-6506160D01*
X-1027750Y-6521400D02*
X-1043625Y-6536640D01*
X-1091250Y-6536640D01*
X-1107125Y-6521400D01*
X-1107125Y-6506160D01*
X-1091250Y-6490920D01*
X-1043625Y-6490920D01*
X-1027750Y-6506160D01*
X-1027750Y-6567120D01*
X-1043625Y-6582360D01*
X-1091250Y-6582360D01*
X+373000Y-6750000D02*
X+378080Y-6724124D01*
X+392685Y-6700152D01*
X+415862Y-6678562D01*
X+446660Y-6659830D01*
X+484125Y-6644431D01*
X+527305Y-6632842D01*
X+575248Y-6625540D01*
X+627000Y-6623000D01*
X+881000Y-6750000D02*
X+875920Y-6724124D01*
X+861315Y-6700152D01*
X+838138Y-6678562D01*
X+807340Y-6659830D01*
X+769875Y-6644431D01*
X+726695Y-6632842D01*
X+678752Y-6625540D01*
X+627000Y-6623000D01*
X+373000Y-6750000D02*
X+378080Y-6775876D01*
X+392685Y-6799848D01*
X+415862Y-6821438D01*
X+446660Y-6840170D01*
X+484125Y-6855569D01*
X+527305Y-6867158D01*
X+575248Y-6874460D01*
X+627000Y-6877000D01*
X+881000Y-6750000D02*
X+875920Y-6775876D01*
X+861315Y-6799848D01*
X+838138Y-6821438D01*
X+807340Y-6840170D01*
X+769875Y-6855569D01*
X+726695Y-6867158D01*
X+678752Y-6874460D01*
X+627000Y-6877000D01*
X+531750Y-6567120D02*
X+515875Y-6582360D01*
X+468250Y-6582360D01*
X+436500Y-6551880D01*
X+436500Y-6521400D01*
X+468250Y-6490920D01*
X+515875Y-6490920D01*
X+531750Y-6506160D01*
X+595250Y-6521400D02*
X+627000Y-6490920D01*
X+627000Y-6582360D01*
X+690500Y-6567120D02*
X+690500Y-6506160D01*
X+706375Y-6490920D01*
X+769875Y-6490920D01*
X+785750Y-6506160D01*
X+785750Y-6567120D01*
X+769875Y-6582360D01*
X+706375Y-6582360D01*
X+690500Y-6567120D01*
X+690500Y-6582360D02*
X+785750Y-6490920D01*
X+881000Y-5750000D02*
X+880173Y-5729517D01*
X+873455Y-5688550D01*
X+859437Y-5647583D01*
X+836659Y-5606616D01*
X+801859Y-5565771D01*
X+760892Y-5534155D01*
X+719925Y-5513608D01*
X+678958Y-5501371D01*
X+637991Y-5496238D01*
X+627000Y-5496000D01*
X+373000Y-5750000D02*
X+373827Y-5729517D01*
X+380545Y-5688550D01*
X+394563Y-5647583D01*
X+417341Y-5606616D01*
X+452141Y-5565771D01*
X+493108Y-5534155D01*
X+534075Y-5513608D01*
X+575042Y-5501371D01*
X+616009Y-5496238D01*
X+627000Y-5496000D01*
X+373000Y-5750000D02*
X+373827Y-5770483D01*
X+380545Y-5811450D01*
X+394563Y-5852417D01*
X+417341Y-5893384D01*
X+452141Y-5934229D01*
X+493108Y-5965845D01*
X+534075Y-5986392D01*
X+575042Y-5998629D01*
X+616009Y-6003762D01*
X+627000Y-6004000D01*
X+881000Y-5750000D02*
X+880173Y-5770483D01*
X+873455Y-5811450D01*
X+859437Y-5852417D01*
X+836659Y-5893384D01*
X+801859Y-5934229D01*
X+760892Y-5965845D01*
X+719925Y-5986392D01*
X+678958Y-5998629D01*
X+637991Y-6003762D01*
X+627000Y-6004000D01*
X+309500Y-5496000D02*
X+436500Y-5496000D01*
X+373000Y-5432500D02*
X+373000Y-5559500D01*
X+468250Y-5391860D02*
X+468250Y-5300420D01*
X+531750Y-5300420D01*
X+563500Y-5330900D01*
X+563500Y-5361380D01*
X+531750Y-5391860D01*
X+468250Y-5391860D01*
X+627000Y-5330900D02*
X+658750Y-5300420D01*
X+658750Y-5391860D01*
X-869000Y-5750000D02*
X-869827Y-5729517D01*
X-876545Y-5688550D01*
X-890563Y-5647583D01*
X-913341Y-5606616D01*
X-948141Y-5565771D01*
X-989108Y-5534155D01*
X-1030075Y-5513608D01*
X-1071042Y-5501371D01*
X-1112009Y-5496238D01*
X-1123000Y-5496000D01*
X-1377000Y-5750000D02*
X-1376173Y-5729517D01*
X-1369455Y-5688550D01*
X-1355437Y-5647583D01*
X-1332659Y-5606616D01*
X-1297859Y-5565771D01*
X-1256892Y-5534155D01*
X-1215925Y-5513608D01*
X-1174958Y-5501371D01*
X-1133991Y-5496238D01*
X-1123000Y-5496000D01*
X-1377000Y-5750000D02*
X-1376173Y-5770483D01*
X-1369455Y-5811450D01*
X-1355437Y-5852417D01*
X-1332659Y-5893384D01*
X-1297859Y-5934229D01*
X-1256892Y-5965845D01*
X-1215925Y-5986392D01*
X-1174958Y-5998629D01*
X-1133991Y-6003762D01*
X-1123000Y-6004000D01*
X-869000Y-5750000D02*
X-869827Y-5770483D01*
X-876545Y-5811450D01*
X-890563Y-5852417D01*
X-913341Y-5893384D01*
X-948141Y-5934229D01*
X-989108Y-5965845D01*
X-1030075Y-5986392D01*
X-1071042Y-5998629D01*
X-1112009Y-6003762D01*
X-1123000Y-6004000D01*
X-1440500Y-5496000D02*
X-1313500Y-5496000D01*
X-1377000Y-5432500D02*
X-1377000Y-5559500D01*
X-1281750Y-5391860D02*
X-1281750Y-5300420D01*
X-1218250Y-5300420D01*
X-1186500Y-5330900D01*
X-1186500Y-5361380D01*
X-1218250Y-5391860D01*
X-1281750Y-5391860D01*
X-1059500Y-5300420D02*
X-1138875Y-5300420D01*
X-1138875Y-5330900D01*
X-1075375Y-5330900D01*
X-1059500Y-5346140D01*
X-1059500Y-5376620D01*
X-1075375Y-5391860D01*
X-1123000Y-5391860D01*
X-1138875Y-5376620D01*
X-2119000Y-5750000D02*
X-2119827Y-5729517D01*
X-2126545Y-5688550D01*
X-2140563Y-5647583D01*
X-2163341Y-5606616D01*
X-2198141Y-5565771D01*
X-2239108Y-5534155D01*
X-2280075Y-5513608D01*
X-2321042Y-5501371D01*
X-2362009Y-5496238D01*
X-2373000Y-5496000D01*
X-2627000Y-5750000D02*
X-2626173Y-5729517D01*
X-2619455Y-5688550D01*
X-2605437Y-5647583D01*
X-2582659Y-5606616D01*
X-2547859Y-5565771D01*
X-2506892Y-5534155D01*
X-2465925Y-5513608D01*
X-2424958Y-5501371D01*
X-2383991Y-5496238D01*
X-2373000Y-5496000D01*
X-2627000Y-5750000D02*
X-2626173Y-5770483D01*
X-2619455Y-5811450D01*
X-2605437Y-5852417D01*
X-2582659Y-5893384D01*
X-2547859Y-5934229D01*
X-2506892Y-5965845D01*
X-2465925Y-5986392D01*
X-2424958Y-5998629D01*
X-2383991Y-6003762D01*
X-2373000Y-6004000D01*
X-2119000Y-5750000D02*
X-2119827Y-5770483D01*
X-2126545Y-5811450D01*
X-2140563Y-5852417D01*
X-2163341Y-5893384D01*
X-2198141Y-5934229D01*
X-2239108Y-5965845D01*
X-2280075Y-5986392D01*
X-2321042Y-5998629D01*
X-2362009Y-6003762D01*
X-2373000Y-6004000D01*
X-2690500Y-5496000D02*
X-2563500Y-5496000D01*
X-2627000Y-5432500D02*
X-2627000Y-5559500D01*
X-2531750Y-5391860D02*
X-2531750Y-5300420D01*
X-2468250Y-5300420D01*
X-2436500Y-5330900D01*
X-2436500Y-5361380D01*
X-2468250Y-5391860D01*
X-2531750Y-5391860D01*
X-2388875Y-5315660D02*
X-2373000Y-5300420D01*
X-2325375Y-5300420D01*
X-2309500Y-5315660D01*
X-2309500Y-5330900D01*
X-2325375Y-5346140D01*
X-2373000Y-5346140D01*
X-2388875Y-5361380D01*
X-2388875Y-5391860D01*
X-2309500Y-5391860D01*
X-3619000Y-5750000D02*
X-3619827Y-5729517D01*
X-3626545Y-5688550D01*
X-3640563Y-5647583D01*
X-3663341Y-5606616D01*
X-3698141Y-5565771D01*
X-3739108Y-5534155D01*
X-3780075Y-5513608D01*
X-3821042Y-5501371D01*
X-3862009Y-5496238D01*
X-3873000Y-5496000D01*
X-4127000Y-5750000D02*
X-4126173Y-5729517D01*
X-4119455Y-5688550D01*
X-4105437Y-5647583D01*
X-4082659Y-5606616D01*
X-4047859Y-5565771D01*
X-4006892Y-5534155D01*
X-3965925Y-5513608D01*
X-3924958Y-5501371D01*
X-3883991Y-5496238D01*
X-3873000Y-5496000D01*
X-4127000Y-5750000D02*
X-4126173Y-5770483D01*
X-4119455Y-5811450D01*
X-4105437Y-5852417D01*
X-4082659Y-5893384D01*
X-4047859Y-5934229D01*
X-4006892Y-5965845D01*
X-3965925Y-5986392D01*
X-3924958Y-5998629D01*
X-3883991Y-6003762D01*
X-3873000Y-6004000D01*
X-3619000Y-5750000D02*
X-3619827Y-5770483D01*
X-3626545Y-5811450D01*
X-3640563Y-5852417D01*
X-3663341Y-5893384D01*
X-3698141Y-5934229D01*
X-3739108Y-5965845D01*
X-3780075Y-5986392D01*
X-3821042Y-5998629D01*
X-3862009Y-6003762D01*
X-3873000Y-6004000D01*
X-4190500Y-5496000D02*
X-4063500Y-5496000D01*
X-4127000Y-5432500D02*
X-4127000Y-5559500D01*
X-4031750Y-5391860D02*
X-4031750Y-5300420D01*
X-3968250Y-5300420D01*
X-3936500Y-5330900D01*
X-3936500Y-5361380D01*
X-3968250Y-5391860D01*
X-4031750Y-5391860D01*
X-3809500Y-5315660D02*
X-3825375Y-5300420D01*
X-3873000Y-5300420D01*
X-3888875Y-5315660D01*
X-3888875Y-5376620D01*
X-3873000Y-5391860D01*
X-3825375Y-5391860D01*
X-3809500Y-5376620D01*
X-3809500Y-5361380D01*
X-3825375Y-5346140D01*
X-3888875Y-5346140D01*
X-4869000Y-5750000D02*
X-4869827Y-5729517D01*
X-4876545Y-5688550D01*
X-4890563Y-5647583D01*
X-4913341Y-5606616D01*
X-4948141Y-5565771D01*
X-4989108Y-5534155D01*
X-5030075Y-5513608D01*
X-5071042Y-5501371D01*
X-5112009Y-5496238D01*
X-5123000Y-5496000D01*
X-5377000Y-5750000D02*
X-5376173Y-5729517D01*
X-5369455Y-5688550D01*
X-5355437Y-5647583D01*
X-5332659Y-5606616D01*
X-5297859Y-5565771D01*
X-5256892Y-5534155D01*
X-5215925Y-5513608D01*
X-5174958Y-5501371D01*
X-5133991Y-5496238D01*
X-5123000Y-5496000D01*
X-5377000Y-5750000D02*
X-5376173Y-5770483D01*
X-5369455Y-5811450D01*
X-5355437Y-5852417D01*
X-5332659Y-5893384D01*
X-5297859Y-5934229D01*
X-5256892Y-5965845D01*
X-5215925Y-5986392D01*
X-5174958Y-5998629D01*
X-5133991Y-6003762D01*
X-5123000Y-6004000D01*
X-4869000Y-5750000D02*
X-4869827Y-5770483D01*
X-4876545Y-5811450D01*
X-4890563Y-5852417D01*
X-4913341Y-5893384D01*
X-4948141Y-5934229D01*
X-4989108Y-5965845D01*
X-5030075Y-5986392D01*
X-5071042Y-5998629D01*
X-5112009Y-6003762D01*
X-5123000Y-6004000D01*
X-5440500Y-5496000D02*
X-5313500Y-5496000D01*
X-5377000Y-5432500D02*
X-5377000Y-5559500D01*
X-5281750Y-5391860D02*
X-5281750Y-5300420D01*
X-5218250Y-5300420D01*
X-5186500Y-5330900D01*
X-5186500Y-5361380D01*
X-5218250Y-5391860D01*
X-5281750Y-5391860D01*
X-5138875Y-5315660D02*
X-5123000Y-5300420D01*
X-5075375Y-5300420D01*
X-5059500Y-5315660D01*
X-5059500Y-5330900D01*
X-5075375Y-5346140D01*
X-5059500Y-5361380D01*
X-5059500Y-5376620D01*
X-5075375Y-5391860D01*
X-5123000Y-5391860D01*
X-5138875Y-5376620D01*
X-5107125Y-5346140D02*
X-5075375Y-5346140D01*
X-6119000Y-5750000D02*
X-6119827Y-5729517D01*
X-6126545Y-5688550D01*
X-6140563Y-5647583D01*
X-6163341Y-5606616D01*
X-6198141Y-5565771D01*
X-6239108Y-5534155D01*
X-6280075Y-5513608D01*
X-6321042Y-5501371D01*
X-6362009Y-5496238D01*
X-6373000Y-5496000D01*
X-6627000Y-5750000D02*
X-6626173Y-5729517D01*
X-6619455Y-5688550D01*
X-6605437Y-5647583D01*
X-6582659Y-5606616D01*
X-6547859Y-5565771D01*
X-6506892Y-5534155D01*
X-6465925Y-5513608D01*
X-6424958Y-5501371D01*
X-6383991Y-5496238D01*
X-6373000Y-5496000D01*
X-6627000Y-5750000D02*
X-6626173Y-5770483D01*
X-6619455Y-5811450D01*
X-6605437Y-5852417D01*
X-6582659Y-5893384D01*
X-6547859Y-5934229D01*
X-6506892Y-5965845D01*
X-6465925Y-5986392D01*
X-6424958Y-5998629D01*
X-6383991Y-6003762D01*
X-6373000Y-6004000D01*
X-6119000Y-5750000D02*
X-6119827Y-5770483D01*
X-6126545Y-5811450D01*
X-6140563Y-5852417D01*
X-6163341Y-5893384D01*
X-6198141Y-5934229D01*
X-6239108Y-5965845D01*
X-6280075Y-5986392D01*
X-6321042Y-5998629D01*
X-6362009Y-6003762D01*
X-6373000Y-6004000D01*
X-6690500Y-5496000D02*
X-6563500Y-5496000D01*
X-6627000Y-5432500D02*
X-6627000Y-5559500D01*
X-6531750Y-5391860D02*
X-6531750Y-5300420D01*
X-6468250Y-5300420D01*
X-6436500Y-5330900D01*
X-6436500Y-5361380D01*
X-6468250Y-5391860D01*
X-6531750Y-5391860D01*
X-6388875Y-5300420D02*
X-6309500Y-5300420D01*
X-6309500Y-5315660D01*
X-6388875Y-5391860D01*
X-7369000Y-5750000D02*
X-7369827Y-5729517D01*
X-7376545Y-5688550D01*
X-7390563Y-5647583D01*
X-7413341Y-5606616D01*
X-7448141Y-5565771D01*
X-7489108Y-5534155D01*
X-7530075Y-5513608D01*
X-7571042Y-5501371D01*
X-7612009Y-5496238D01*
X-7623000Y-5496000D01*
X-7877000Y-5750000D02*
X-7876173Y-5729517D01*
X-7869455Y-5688550D01*
X-7855437Y-5647583D01*
X-7832659Y-5606616D01*
X-7797859Y-5565771D01*
X-7756892Y-5534155D01*
X-7715925Y-5513608D01*
X-7674958Y-5501371D01*
X-7633991Y-5496238D01*
X-7623000Y-5496000D01*
X-7877000Y-5750000D02*
X-7876173Y-5770483D01*
X-7869455Y-5811450D01*
X-7855437Y-5852417D01*
X-7832659Y-5893384D01*
X-7797859Y-5934229D01*
X-7756892Y-5965845D01*
X-7715925Y-5986392D01*
X-7674958Y-5998629D01*
X-7633991Y-6003762D01*
X-7623000Y-6004000D01*
X-7369000Y-5750000D02*
X-7369827Y-5770483D01*
X-7376545Y-5811450D01*
X-7390563Y-5852417D01*
X-7413341Y-5893384D01*
X-7448141Y-5934229D01*
X-7489108Y-5965845D01*
X-7530075Y-5986392D01*
X-7571042Y-5998629D01*
X-7612009Y-6003762D01*
X-7623000Y-6004000D01*
X-7940500Y-5496000D02*
X-7813500Y-5496000D01*
X-7877000Y-5432500D02*
X-7877000Y-5559500D01*
X-7781750Y-5391860D02*
X-7781750Y-5300420D01*
X-7718250Y-5300420D01*
X-7686500Y-5330900D01*
X-7686500Y-5361380D01*
X-7718250Y-5391860D01*
X-7781750Y-5391860D01*
X-7559500Y-5361380D02*
X-7654750Y-5361380D01*
X-7591250Y-5300420D01*
X-7591250Y-5391860D01*
X-8619000Y-5750000D02*
X-8619827Y-5729517D01*
X-8626545Y-5688550D01*
X-8640563Y-5647583D01*
X-8663341Y-5606616D01*
X-8698141Y-5565771D01*
X-8739108Y-5534155D01*
X-8780075Y-5513608D01*
X-8821042Y-5501371D01*
X-8862009Y-5496238D01*
X-8873000Y-5496000D01*
X-9127000Y-5750000D02*
X-9126173Y-5729517D01*
X-9119455Y-5688550D01*
X-9105437Y-5647583D01*
X-9082659Y-5606616D01*
X-9047859Y-5565771D01*
X-9006892Y-5534155D01*
X-8965925Y-5513608D01*
X-8924958Y-5501371D01*
X-8883991Y-5496238D01*
X-8873000Y-5496000D01*
X-9127000Y-5750000D02*
X-9126173Y-5770483D01*
X-9119455Y-5811450D01*
X-9105437Y-5852417D01*
X-9082659Y-5893384D01*
X-9047859Y-5934229D01*
X-9006892Y-5965845D01*
X-8965925Y-5986392D01*
X-8924958Y-5998629D01*
X-8883991Y-6003762D01*
X-8873000Y-6004000D01*
X-8619000Y-5750000D02*
X-8619827Y-5770483D01*
X-8626545Y-5811450D01*
X-8640563Y-5852417D01*
X-8663341Y-5893384D01*
X-8698141Y-5934229D01*
X-8739108Y-5965845D01*
X-8780075Y-5986392D01*
X-8821042Y-5998629D01*
X-8862009Y-6003762D01*
X-8873000Y-6004000D01*
X-9190500Y-5496000D02*
X-9063500Y-5496000D01*
X-9127000Y-5432500D02*
X-9127000Y-5559500D01*
X-9031750Y-5391860D02*
X-9031750Y-5300420D01*
X-8968250Y-5300420D01*
X-8936500Y-5330900D01*
X-8936500Y-5361380D01*
X-8968250Y-5391860D01*
X-9031750Y-5391860D01*
X-8873000Y-5346140D02*
X-8888875Y-5330900D01*
X-8888875Y-5315660D01*
X-8873000Y-5300420D01*
X-8825375Y-5300420D01*
X-8809500Y-5315660D01*
X-8809500Y-5330900D01*
X-8825375Y-5346140D01*
X-8873000Y-5346140D01*
X-8888875Y-5361380D01*
X-8888875Y-5376620D01*
X-8873000Y-5391860D01*
X-8825375Y-5391860D01*
X-8809500Y-5376620D01*
X-8809500Y-5361380D01*
X-8825375Y-5346140D01*
X-1377000Y-3762000D02*
X-1371920Y-3813752D01*
X-1357315Y-3861695D01*
X-1334138Y-3904875D01*
X-1303340Y-3942340D01*
X-1265875Y-3973138D01*
X-1222695Y-3996315D01*
X-1174752Y-4010920D01*
X-1123000Y-4016000D01*
X-1377000Y-3762000D02*
X-1371920Y-3709518D01*
X-1357315Y-3661233D01*
X-1334138Y-3618009D01*
X-1303340Y-3580708D01*
X-1265875Y-3550193D01*
X-1222695Y-3527328D01*
X-1174752Y-3512976D01*
X-1123000Y-3508000D01*
X-1123000Y-4016000D02*
X-1123000Y-4397000D01*
X-6203000Y-4397000D02*
X-6203000Y-3127000D01*
X-1123000Y-3127000D02*
X-1123000Y-3508000D01*
X-1123000Y-4397000D02*
X-6203000Y-4397000D01*
X-1123000Y-3127000D02*
X-6203000Y-3127000D01*
X-1082360Y-3889000D02*
X-1006160Y-3889000D01*
X-990920Y-3873125D01*
X-990920Y-3809625D01*
X-1006160Y-3793750D01*
X-1082360Y-3793750D01*
X-1051880Y-3730250D02*
X-1082360Y-3698500D01*
X-990920Y-3698500D01*
X-4381000Y-2127000D02*
X-3619000Y-2127000D01*
X-3619000Y-1873000D01*
X-4381000Y-1873000D01*
X-4381000Y-2127000D01*
X-4381000Y-1873000D02*
X-4381000Y-1746000D01*
X-3619000Y-1746000D01*
X-3619000Y-1873000D01*
X-4381000Y-1873000D02*
X-4254000Y-1746000D01*
X-4254000Y-1873000D02*
X-4127000Y-1746000D01*
X-4127000Y-1873000D02*
X-4000000Y-1746000D01*
X-4000000Y-1873000D02*
X-3873000Y-1746000D01*
X-3873000Y-1873000D02*
X-3746000Y-1746000D01*
X-3746000Y-1873000D02*
X-3619000Y-1746000D01*
X-4127000Y-1613920D02*
X-4127000Y-1690120D01*
X-4111125Y-1705360D01*
X-4047625Y-1705360D01*
X-4031750Y-1690120D01*
X-4031750Y-1613920D01*
X-3984125Y-1629160D02*
X-3968250Y-1613920D01*
X-3920625Y-1613920D01*
X-3904750Y-1629160D01*
X-3904750Y-1644400D01*
X-3920625Y-1659640D01*
X-3968250Y-1659640D01*
X-3984125Y-1674880D01*
X-3984125Y-1705360D01*
X-3904750Y-1705360D01*
X-5127000Y-2500000D02*
X-5121920Y-2474124D01*
X-5107315Y-2450152D01*
X-5084138Y-2428562D01*
X-5053340Y-2409830D01*
X-5015875Y-2394431D01*
X-4972695Y-2382842D01*
X-4924752Y-2375540D01*
X-4873000Y-2373000D01*
X-4619000Y-2500000D02*
X-4624080Y-2474124D01*
X-4638685Y-2450152D01*
X-4661862Y-2428562D01*
X-4692660Y-2409830D01*
X-4730125Y-2394431D01*
X-4773305Y-2382842D01*
X-4821248Y-2375540D01*
X-4873000Y-2373000D01*
X-5127000Y-2500000D02*
X-5121920Y-2525876D01*
X-5107315Y-2549848D01*
X-5084138Y-2571438D01*
X-5053340Y-2590170D01*
X-5015875Y-2605569D01*
X-4972695Y-2617158D01*
X-4924752Y-2624460D01*
X-4873000Y-2627000D01*
X-4619000Y-2500000D02*
X-4624080Y-2525876D01*
X-4638685Y-2549848D01*
X-4661862Y-2571438D01*
X-4692660Y-2590170D01*
X-4730125Y-2605569D01*
X-4773305Y-2617158D01*
X-4821248Y-2624460D01*
X-4873000Y-2627000D01*
X-4904750Y-2317120D02*
X-4920625Y-2332360D01*
X-4968250Y-2332360D01*
X-5000000Y-2301880D01*
X-5000000Y-2271400D01*
X-4968250Y-2240920D01*
X-4920625Y-2240920D01*
X-4904750Y-2256160D01*
X-4841250Y-2271400D02*
X-4809500Y-2240920D01*
X-4809500Y-2332360D01*
X-3377000Y-2500000D02*
X-3371920Y-2474124D01*
X-3357315Y-2450152D01*
X-3334138Y-2428562D01*
X-3303340Y-2409830D01*
X-3265875Y-2394431D01*
X-3222695Y-2382842D01*
X-3174752Y-2375540D01*
X-3123000Y-2373000D01*
X-2869000Y-2500000D02*
X-2874080Y-2474124D01*
X-2888685Y-2450152D01*
X-2911862Y-2428562D01*
X-2942660Y-2409830D01*
X-2980125Y-2394431D01*
X-3023305Y-2382842D01*
X-3071248Y-2375540D01*
X-3123000Y-2373000D01*
X-3377000Y-2500000D02*
X-3371920Y-2525876D01*
X-3357315Y-2549848D01*
X-3334138Y-2571438D01*
X-3303340Y-2590170D01*
X-3265875Y-2605569D01*
X-3222695Y-2617158D01*
X-3174752Y-2624460D01*
X-3123000Y-2627000D01*
X-2869000Y-2500000D02*
X-2874080Y-2525876D01*
X-2888685Y-2549848D01*
X-2911862Y-2571438D01*
X-2942660Y-2590170D01*
X-2980125Y-2605569D01*
X-3023305Y-2617158D01*
X-3071248Y-2624460D01*
X-3123000Y-2627000D01*
X-3154750Y-2317120D02*
X-3170625Y-2332360D01*
X-3218250Y-2332360D01*
X-3250000Y-2301880D01*
X-3250000Y-2271400D01*
X-3218250Y-2240920D01*
X-3170625Y-2240920D01*
X-3154750Y-2256160D01*
X-3107125Y-2256160D02*
X-3091250Y-2240920D01*
X-3043625Y-2240920D01*
X-3027750Y-2256160D01*
X-3027750Y-2271400D01*
X-3043625Y-2286640D01*
X-3091250Y-2286640D01*
X-3107125Y-2301880D01*
X-3107125Y-2332360D01*
X-3027750Y-2332360D01*
X-9377000Y-2627000D02*
X-8869000Y-2627000D01*
X-8869000Y-2373000D01*
X-9377000Y-2373000D01*
X-9377000Y-2627000D01*
X-9377000Y-2332360D02*
X-9377000Y-2240920D01*
X-9297625Y-2240920D01*
X-9281750Y-2256160D01*
X-9281750Y-2271400D01*
X-9297625Y-2286640D01*
X-9281750Y-2301880D01*
X-9281750Y-2317120D01*
X-9297625Y-2332360D01*
X-9377000Y-2332360D01*
X-9377000Y-2286640D02*
X-9297625Y-2286640D01*
X-9250000Y-2332360D02*
X-9250000Y-2271400D01*
X-9218250Y-2240920D01*
X-9186500Y-2240920D01*
X-9154750Y-2271400D01*
X-9154750Y-2332360D01*
X-9250000Y-2301880D02*
X-9154750Y-2301880D01*
X-9123000Y-2240920D02*
X-9027750Y-2240920D01*
X-9075375Y-2240920D02*
X-9075375Y-2332360D01*
X-8964250Y-2271400D02*
X-8932500Y-2240920D01*
X-8932500Y-2332360D01*
X-1127000Y-2127000D02*
X-619000Y-2127000D01*
X-619000Y-1873000D01*
X-1127000Y-1873000D01*
X-1127000Y-2127000D01*
X-1127000Y-1832360D02*
X-1127000Y-1740920D01*
X-1047625Y-1740920D01*
X-1031750Y-1756160D01*
X-1031750Y-1771400D01*
X-1047625Y-1786640D01*
X-1031750Y-1801880D01*
X-1031750Y-1817120D01*
X-1047625Y-1832360D01*
X-1127000Y-1832360D01*
X-1127000Y-1786640D02*
X-1047625Y-1786640D01*
X-1000000Y-1740920D02*
X-1000000Y-1817120D01*
X-984125Y-1832360D01*
X-920625Y-1832360D01*
X-904750Y-1817120D01*
X-904750Y-1740920D01*
X-873000Y-1740920D02*
X-777750Y-1740920D01*
X-873000Y-1832360D01*
X-777750Y-1832360D01*
X-714250Y-1771400D02*
X-682500Y-1740920D01*
X-682500Y-1832360D01*
X-500000Y-2377000D02*
X-500000Y-2504000D01*
X-563500Y-3012000D02*
X-436500Y-3012000D01*
X-436500Y-2504000D01*
X-563500Y-2504000D01*
X-563500Y-3012000D01*
X-500000Y-3012000D02*
X-500000Y-3139000D01*
X-304420Y-2885000D02*
X-395860Y-2885000D01*
X-395860Y-2805625D01*
X-380620Y-2789750D01*
X-365380Y-2789750D01*
X-350140Y-2805625D01*
X-350140Y-2885000D01*
X-350140Y-2805625D02*
X-334900Y-2789750D01*
X-304420Y-2789750D01*
X-365380Y-2662750D02*
X-350140Y-2678625D01*
X-350140Y-2726250D01*
X-365380Y-2742125D01*
X-380620Y-2742125D01*
X-395860Y-2726250D01*
X-395860Y-2678625D01*
X-380620Y-2662750D01*
X-319660Y-2662750D01*
X-304420Y-2678625D01*
X-304420Y-2726250D01*
X-67500Y-3873000D02*
X+567500Y-3873000D01*
X-67500Y-3873000D02*
X-67500Y-4000000D01*
X-64973Y-4025968D01*
X-57702Y-4049982D01*
X-46152Y-4071577D01*
X-30789Y-4090289D01*
X-12077Y-4105653D01*
X+9519Y-4117202D01*
X+33533Y-4124473D01*
X+59500Y-4127000D01*
X+567500Y-4000000D02*
X+564973Y-4025968D01*
X+557702Y-4049982D01*
X+546152Y-4071577D01*
X+530789Y-4090289D01*
X+512077Y-4105653D01*
X+490482Y-4117202D01*
X+466468Y-4124473D01*
X+440500Y-4127000D01*
X+567500Y-3873000D02*
X+567500Y-4000000D01*
X+440500Y-4127000D02*
X+59500Y-4127000D01*
X+123000Y-3771400D02*
X+154750Y-3740920D01*
X+186500Y-3740920D01*
X+218250Y-3771400D01*
X+218250Y-3801880D01*
X+186500Y-3832360D01*
X+154750Y-3832360D01*
X+123000Y-3801880D01*
X+123000Y-3771400D01*
X+186500Y-3801880D02*
X+218250Y-3832360D01*
X+281750Y-3771400D02*
X+313500Y-3740920D01*
X+313500Y-3832360D01*
X-9750000Y-9750000D02*
X+1750000Y-9750000D01*
X+1750000Y-1500000D01*
X-9750000Y-1500000D01*
X-9750000Y-9750000D01*
D19*
X+1750000Y-9750000D01*
X+1750000Y-1500000D01*
X-9750000Y-1500000D01*
X-9750000Y-9750000D01*
X-7750000Y-1953200D02*
X-7750000Y-1800800D01*
X-7597600Y-1800800D02*
X-7597600Y-1953200D01*
X-7750000Y-1877000D02*
X-7597600Y-1877000D01*
X-7546800Y-1851600D02*
X-7546800Y-1927800D01*
X-7521400Y-1953200D01*
X-7419800Y-1953200D01*
X-7394400Y-1927800D01*
X-7394400Y-1953200D02*
X-7394400Y-1851600D01*
X-7267400Y-1800800D02*
X-7267400Y-1953200D01*
X-7140400Y-1902400D02*
X-6988000Y-1902400D01*
X-6988000Y-1877000D01*
X-7013400Y-1851600D01*
X-7115000Y-1851600D01*
X-7140400Y-1877000D01*
X-7140400Y-1927800D01*
X-7115000Y-1953200D01*
X-7013400Y-1953200D01*
X-6911800Y-1851600D02*
X-6810200Y-1851600D01*
X-6784800Y-1877000D01*
X-6784800Y-1953200D01*
X-6911800Y-1953200D01*
X-6937200Y-1927800D01*
X-6911800Y-1902400D01*
X-6784800Y-1902400D01*
X-6505400Y-1800800D02*
X-6403800Y-1800800D01*
X-6454600Y-1800800D02*
X-6454600Y-1953200D01*
X-6505400Y-1953200D02*
X-6403800Y-1953200D01*
X-6327600Y-1877000D02*
X-6302200Y-1851600D01*
X-6200600Y-1851600D01*
X-6175200Y-1877000D01*
X-6175200Y-1927800D01*
X-6200600Y-1953200D01*
X-6302200Y-1953200D01*
X-6327600Y-1927800D01*
X-6327600Y-1877000D01*
X-6099000Y-1851600D02*
X-5997400Y-1851600D01*
X-5972000Y-1877000D01*
X-5972000Y-1953200D01*
X-6099000Y-1953200D01*
X-6124400Y-1927800D01*
X-6099000Y-1902400D01*
X-5972000Y-1902400D01*
X-5921200Y-1953200D02*
X-5921200Y-1851600D01*
X-5921200Y-1877000D02*
X-5895800Y-1851600D01*
X-5794200Y-1851600D01*
X-5768800Y-1877000D01*
X-5768800Y-1953200D01*
X-5692600Y-1851600D02*
X-5591000Y-1851600D01*
X-5565600Y-1877000D01*
X-5565600Y-1953200D01*
X-5692600Y-1953200D01*
X-5718000Y-1927800D01*
X-5692600Y-1902400D01*
X-5565600Y-1902400D01*
M02*
