G04 PROTEUS GERBER X2 FILE*
%TF.GenerationSoftware,Labcenter,Proteus,8.13-SP0-Build31525*%
%TF.CreationDate,2025-10-06T08:39:33+00:00*%
%TF.FileFunction,Copper,L2,Bot*%
%TF.FilePolarity,Positive*%
%TF.Part,Single*%
%TF.SameCoordinates,{e836b8dc-1bae-4307-972e-94e507faed55}*%
%FSLAX45Y45*%
%MOMM*%
G01*
%TA.AperFunction,Conductor*%
%ADD10C,0.762000*%
%ADD11C,1.016000*%
%TA.AperFunction,ViaPad*%
%ADD12C,0.762000*%
%TA.AperFunction,ComponentPad*%
%ADD13C,1.200000*%
%TA.AperFunction,ComponentPad*%
%ADD14C,1.778000*%
%ADD15R,2.032000X2.032000*%
%TA.AperFunction,ComponentPad*%
%ADD16R,1.270000X1.270000*%
%ADD17C,1.270000*%
%TA.AperFunction,ComponentPad*%
%ADD18C,1.524000*%
%TA.AperFunction,Profile*%
%ADD19C,0.203200*%
%TD.AperFunction*%
D10*
X+500000Y-6750000D02*
X+500000Y-6223000D01*
X+754000Y-5969000D01*
X+754000Y-5750000D01*
X+500000Y-6750000D02*
X+250000Y-7000000D01*
X+250000Y-7750000D01*
X-996000Y-5750000D02*
X-996000Y-5334000D01*
X-1503999Y-4826001D01*
X-1504000Y-4524000D01*
X-1503999Y-4524000D01*
X-1250000Y-6750000D02*
X-1250000Y-6350000D01*
X-996000Y-6096000D01*
X-996000Y-5750000D01*
X-1250000Y-6750000D02*
X-1250000Y-7750000D01*
X-2246000Y-5750000D02*
X-1757999Y-5261999D01*
X-1758000Y-4524000D01*
X-1757999Y-4524000D01*
X-2500000Y-6750000D02*
X-2500000Y-6350000D01*
X-2246000Y-6096000D01*
X-2246000Y-5750000D01*
X-2500000Y-6750000D02*
X-2750000Y-7000000D01*
X-2750000Y-7750000D01*
X-4000000Y-6750000D02*
X-4000000Y-6477000D01*
X-3746000Y-6223000D01*
X-3746000Y-5750000D01*
X-4000000Y-6750000D02*
X-4250000Y-7000000D01*
X-4250000Y-7750000D01*
X-5250000Y-6750000D02*
X-5750000Y-7250000D01*
X-5750000Y-7750000D01*
X-5250000Y-6750000D02*
X-5250000Y-6223000D01*
X-4996000Y-5969000D01*
X-4996000Y-5750000D01*
X-6246000Y-6750000D02*
X-6246000Y-6996000D01*
X-7000000Y-7750000D01*
X-6246000Y-6750000D02*
X-6246000Y-5750000D01*
X-7746000Y-6750000D02*
X-7746000Y-7246000D01*
X-8250000Y-7750000D01*
X-7746000Y-6750000D02*
X-7746000Y-6477000D01*
X-7496000Y-6227000D01*
X-7496000Y-5750000D01*
X-7496000Y-5464000D01*
X-7493000Y-5461000D01*
X-9000000Y-6750000D02*
X-9000000Y-7250000D01*
X-9500000Y-7750000D01*
X-9000000Y-6750000D02*
X-9000000Y-6350000D01*
X-8746000Y-6096000D01*
X-8746000Y-5750000D01*
X-3048000Y-4953000D02*
X-3027999Y-4932999D01*
X-3028000Y-4524000D01*
X-3027999Y-4524000D01*
X+1150000Y-8550000D02*
X+1150000Y-8255000D01*
X+1266000Y-8139000D01*
X+1266000Y-7750000D01*
X-350000Y-8550000D02*
X-350000Y-8255000D01*
X-234000Y-8139000D01*
X-234000Y-7750000D01*
X-1850000Y-8550000D02*
X-2032000Y-8368000D01*
X-2032000Y-8048000D01*
X-1734000Y-7750000D01*
X-3350000Y-8550000D02*
X-3556000Y-8344000D01*
X-3556000Y-8072000D01*
X-3234000Y-7750000D01*
X-4850000Y-8550000D02*
X-4850000Y-8255000D01*
X-4734000Y-8139000D01*
X-4734000Y-7750000D01*
X-6100000Y-8550000D02*
X-6100000Y-8382000D01*
X-5984000Y-8266000D01*
X-5984000Y-7750000D01*
X-7350000Y-8550000D02*
X-7350000Y-8255000D01*
X-7234000Y-8139000D01*
X-7234000Y-7750000D01*
X-3250000Y-2500000D02*
X-3556000Y-2500000D01*
X-3746000Y-2310000D01*
X-3746000Y-2000000D01*
X-500000Y-2250000D02*
X-746000Y-2250000D01*
X-746000Y-2000000D01*
X-8600000Y-8550000D02*
X-8600000Y-8255000D01*
X-8484000Y-8139000D01*
X-8484000Y-7750000D01*
D11*
X-996000Y-6750000D02*
X-762000Y-6750000D01*
X-762000Y-6858000D01*
X-635000Y-6858000D01*
X-350000Y-9000000D02*
X-635000Y-8715000D01*
X-635000Y-6858000D01*
X-4044000Y-3000000D02*
X-4044000Y-4016000D01*
X-3536000Y-4524000D01*
X-3746000Y-6750000D02*
X-3536000Y-6540000D01*
X-3536000Y-4524000D01*
X+0Y-6477000D02*
X+0Y-6350000D01*
X-127000Y-6223000D01*
X-635000Y-6731000D02*
X-254000Y-6731000D01*
X-127000Y-6604000D01*
X-127000Y-6223000D01*
X-127000Y-4173800D01*
X+46800Y-4000000D01*
X-4044000Y-3000000D02*
X-4044000Y-2667000D01*
X-4000000Y-2623000D01*
X-4000000Y-2000000D01*
X-635000Y-6731000D02*
X-635000Y-6858000D01*
X-2500000Y-5750000D02*
X-3281999Y-4968001D01*
X-3282000Y-4524000D01*
X-3281999Y-4524000D01*
X-3281999Y-3508001D01*
X-3790000Y-3000000D01*
X-4000000Y-5750000D02*
X-4416000Y-5334000D01*
X-5080000Y-5334000D01*
X-5250000Y-5504000D01*
X-5250000Y-5750000D01*
X-2500000Y-5750000D02*
X-2500000Y-5969000D01*
X-2667000Y-5969000D01*
X-6500000Y-5750000D02*
X-6916000Y-5334000D01*
X-7620000Y-5334000D01*
X-7750000Y-5464000D01*
X-7750000Y-5750000D01*
X-5250000Y-5750000D02*
X-5588000Y-5750000D01*
X-5877000Y-5461000D01*
X-6500000Y-5461000D01*
X-6500000Y-5750000D01*
D12*
X-7493000Y-5461000D03*
X-3048000Y-4953000D03*
X+0Y-6477000D03*
X-2667000Y-5969000D03*
D13*
X-1000000Y-8550000D03*
X-350000Y-8550000D03*
X-350000Y-9000000D03*
X-1000000Y-9000000D03*
X-2500000Y-8550000D03*
X-1850000Y-8550000D03*
X-1850000Y-9000000D03*
X-2500000Y-9000000D03*
X+500000Y-8550000D03*
X+1150000Y-8550000D03*
X+1150000Y-9000000D03*
X+500000Y-9000000D03*
X-4000000Y-8550000D03*
X-3350000Y-8550000D03*
X-3350000Y-9000000D03*
X-4000000Y-9000000D03*
X-5500000Y-8550000D03*
X-4850000Y-8550000D03*
X-4850000Y-9000000D03*
X-5500000Y-9000000D03*
X-6750000Y-8550000D03*
X-6100000Y-8550000D03*
X-6100000Y-9000000D03*
X-6750000Y-9000000D03*
X-8000000Y-8550000D03*
X-7350000Y-8550000D03*
X-7350000Y-9000000D03*
X-8000000Y-9000000D03*
X-9250000Y-8550000D03*
X-8600000Y-8550000D03*
X-8600000Y-9000000D03*
X-9250000Y-9000000D03*
D14*
X+250000Y-7750000D03*
X+1266000Y-7750000D03*
X-1250000Y-7750000D03*
X-234000Y-7750000D03*
X-2750000Y-7750000D03*
X-1734000Y-7750000D03*
X-4250000Y-7750000D03*
X-3234000Y-7750000D03*
X-5750000Y-7750000D03*
X-4734000Y-7750000D03*
X-7000000Y-7750000D03*
X-5984000Y-7750000D03*
X-8250000Y-7750000D03*
X-7234000Y-7750000D03*
X-9500000Y-7750000D03*
X-8484000Y-7750000D03*
X-9000000Y-6750000D03*
X-8746000Y-6750000D03*
X-7746000Y-6750000D03*
X-7492000Y-6750000D03*
X-6500000Y-6750000D03*
X-6246000Y-6750000D03*
X-5250000Y-6750000D03*
X-4996000Y-6750000D03*
X-4000000Y-6750000D03*
X-3746000Y-6750000D03*
X-2500000Y-6750000D03*
X-2246000Y-6750000D03*
X-1250000Y-6750000D03*
X-996000Y-6750000D03*
X+500000Y-6750000D03*
X+754000Y-6750000D03*
D15*
X+500000Y-5750000D03*
X+754000Y-5750000D03*
X-1250000Y-5750000D03*
X-996000Y-5750000D03*
X-2500000Y-5750000D03*
X-2246000Y-5750000D03*
X-4000000Y-5750000D03*
X-3746000Y-5750000D03*
X-5250000Y-5750000D03*
X-4996000Y-5750000D03*
X-6500000Y-5750000D03*
X-6246000Y-5750000D03*
X-7750000Y-5750000D03*
X-7496000Y-5750000D03*
X-9000000Y-5750000D03*
X-8746000Y-5750000D03*
D16*
X-1250000Y-3000000D03*
D17*
X-1504000Y-3000000D03*
X-1758000Y-3000000D03*
X-2012000Y-3000000D03*
X-2266000Y-3000000D03*
X-2520000Y-3000000D03*
X-2774000Y-3000000D03*
X-3028000Y-3000000D03*
X-3282000Y-3000000D03*
X-3536000Y-3000000D03*
X-3790000Y-3000000D03*
X-4044000Y-3000000D03*
X-4298000Y-3000000D03*
X-4552000Y-3000000D03*
X-4806000Y-3000000D03*
X-5060000Y-3000000D03*
X-5314000Y-3000000D03*
X-5568000Y-3000000D03*
X-5822000Y-3000000D03*
X-6076000Y-3000000D03*
X-6076000Y-4524000D03*
X-5822000Y-4524000D03*
X-5568000Y-4524000D03*
X-5314000Y-4524000D03*
X-5060000Y-4524000D03*
X-4806000Y-4524000D03*
X-4552000Y-4524000D03*
X-4298000Y-4524000D03*
X-4044000Y-4524000D03*
X-3790000Y-4524000D03*
X-3536000Y-4524000D03*
X-3282000Y-4524000D03*
X-3028000Y-4524000D03*
X-2774000Y-4524000D03*
X-2520000Y-4524000D03*
X-2266000Y-4524000D03*
X-2012000Y-4524000D03*
X-1758000Y-4524000D03*
X-1504000Y-4524000D03*
X-1250000Y-4524000D03*
D15*
X-4254000Y-2000000D03*
X-4000000Y-2000000D03*
X-3746000Y-2000000D03*
D14*
X-5000000Y-2500000D03*
X-4746000Y-2500000D03*
X-3250000Y-2500000D03*
X-2996000Y-2500000D03*
D15*
X-9250000Y-2500000D03*
X-8996000Y-2500000D03*
X-1000000Y-2000000D03*
X-746000Y-2000000D03*
D14*
X-500000Y-2250000D03*
X-500000Y-3266000D03*
D18*
X+46800Y-4000000D03*
X+250000Y-4000000D03*
X+453200Y-4000000D03*
D19*
X-9750000Y-9750000D02*
X+1750000Y-9750000D01*
X+1750000Y-1500000D01*
X-9750000Y-1500000D01*
X-9750000Y-9750000D01*
X-7750000Y-1953200D02*
X-7750000Y-1800800D01*
X-7597600Y-1800800D02*
X-7597600Y-1953200D01*
X-7750000Y-1877000D02*
X-7597600Y-1877000D01*
X-7546800Y-1851600D02*
X-7546800Y-1927800D01*
X-7521400Y-1953200D01*
X-7419800Y-1953200D01*
X-7394400Y-1927800D01*
X-7394400Y-1953200D02*
X-7394400Y-1851600D01*
X-7267400Y-1800800D02*
X-7267400Y-1953200D01*
X-7140400Y-1902400D02*
X-6988000Y-1902400D01*
X-6988000Y-1877000D01*
X-7013400Y-1851600D01*
X-7115000Y-1851600D01*
X-7140400Y-1877000D01*
X-7140400Y-1927800D01*
X-7115000Y-1953200D01*
X-7013400Y-1953200D01*
X-6911800Y-1851600D02*
X-6810200Y-1851600D01*
X-6784800Y-1877000D01*
X-6784800Y-1953200D01*
X-6911800Y-1953200D01*
X-6937200Y-1927800D01*
X-6911800Y-1902400D01*
X-6784800Y-1902400D01*
X-6505400Y-1800800D02*
X-6403800Y-1800800D01*
X-6454600Y-1800800D02*
X-6454600Y-1953200D01*
X-6505400Y-1953200D02*
X-6403800Y-1953200D01*
X-6327600Y-1877000D02*
X-6302200Y-1851600D01*
X-6200600Y-1851600D01*
X-6175200Y-1877000D01*
X-6175200Y-1927800D01*
X-6200600Y-1953200D01*
X-6302200Y-1953200D01*
X-6327600Y-1927800D01*
X-6327600Y-1877000D01*
X-6099000Y-1851600D02*
X-5997400Y-1851600D01*
X-5972000Y-1877000D01*
X-5972000Y-1953200D01*
X-6099000Y-1953200D01*
X-6124400Y-1927800D01*
X-6099000Y-1902400D01*
X-5972000Y-1902400D01*
X-5921200Y-1953200D02*
X-5921200Y-1851600D01*
X-5921200Y-1877000D02*
X-5895800Y-1851600D01*
X-5794200Y-1851600D01*
X-5768800Y-1877000D01*
X-5768800Y-1953200D01*
X-5692600Y-1851600D02*
X-5591000Y-1851600D01*
X-5565600Y-1877000D01*
X-5565600Y-1953200D01*
X-5692600Y-1953200D01*
X-5718000Y-1927800D01*
X-5692600Y-1902400D01*
X-5565600Y-1902400D01*
M02*
